<svg width="30" height="30" viewBox="0 0 30 30" fill="none" xmlns="http://www.w3.org/2000/svg">
<path fill-rule="evenodd" clip-rule="evenodd" d="M28 15C28 22.1797 22.1797 28 15 28C7.82029 28 2 22.1797 2 15C2 7.82029 7.82029 2 15 2C22.1797 2 28 7.82029 28 15ZM25.92 15C25.92 21.0309 21.031 25.92 15 25.92C8.96896 25.92 4.08 21.0309 4.08 15C4.08 8.96906 8.96896 4.08 15 4.08C21.031 4.08 25.92 8.96906 25.92 15ZM18.3224 11.9931C18.7284 11.587 19.387 11.587 19.793 11.9931C20.1992 12.3992 20.1992 13.0577 19.793 13.4639L14.6453 18.6116C14.2393 19.0178 13.5807 19.0178 13.1747 18.6116L10.417 15.8539C10.0107 15.4478 10.0107 14.7893 10.417 14.3831C10.823 13.977 11.4816 13.977 11.8876 14.3831L13.91 16.4055L18.3224 11.9931Z" fill="#303030"/>
</svg>
