<svg width="30" height="30" viewBox="0 0 30 30" fill="none" xmlns="http://www.w3.org/2000/svg">
<path fill-rule="evenodd" clip-rule="evenodd" d="M15 28C15.1013 28 15.4001 27.9569 15.8824 27.447C16.3686 26.9329 16.8986 26.0816 17.3857 24.8638C17.7202 24.0275 18.0161 23.0647 18.2601 22H11.7399C11.9839 23.0647 12.2798 24.0275 12.6143 24.8638C13.1014 26.0816 13.6314 26.9329 14.1176 27.447C14.5999 27.9569 14.8987 28 15 28ZM11.3626 20C11.1306 18.464 11 16.7793 11 15C11 13.2207 11.1306 11.536 11.3626 10H18.6374C18.8694 11.536 19 13.2207 19 15C19 16.7793 18.8694 18.464 18.6374 20H11.3626ZM20.308 22C19.8281 24.2695 19.1222 26.1941 18.2651 27.5865C21.48 26.7549 24.2123 24.7242 25.9564 22H20.308ZM27.0037 20H20.6586C20.8797 18.4361 21 16.7532 21 15C21 13.2468 20.8797 11.5639 20.6586 10H27.0037C27.6455 11.5392 28 13.2282 28 15C28 16.7718 27.6455 18.4608 27.0037 20ZM9.34141 20H2.99633C2.35446 18.4608 2 16.7718 2 15C2 13.2282 2.35446 11.5392 2.99633 10H9.34141C9.12031 11.5639 9 13.2468 9 15C9 16.7532 9.12031 18.4361 9.34141 20ZM4.04364 22H9.69204C10.1719 24.2695 10.8778 26.1941 11.7349 27.5865C8.52005 26.7549 5.78775 24.7242 4.04364 22ZM11.7399 8H18.2601C18.0161 6.93531 17.7202 5.97255 17.3857 5.13618C16.8986 3.9184 16.3686 3.06712 15.8824 2.55299C15.4001 2.04309 15.1013 2 15 2C14.8987 2 14.5999 2.04309 14.1176 2.55299C13.6314 3.06712 13.1014 3.9184 12.6143 5.13618C12.2798 5.97255 11.9839 6.93531 11.7399 8ZM20.308 8H25.9564C24.2123 5.27579 21.48 3.24505 18.2651 2.41346C19.1222 3.80586 19.8281 5.7305 20.308 8ZM11.7349 2.41346C10.8778 3.80586 10.1719 5.7305 9.69204 8H4.04364C5.78775 5.27579 8.52005 3.24505 11.7349 2.41346ZM15 0C23.2843 0 30 6.71573 30 15C30 23.2843 23.2843 30 15 30C6.71573 30 0 23.2843 0 15C0 6.71573 6.71573 0 15 0Z" fill="#303030"/>
</svg>
