<svg width="30" height="30" viewBox="0 0 30 30" fill="none" xmlns="http://www.w3.org/2000/svg">
<path fill-rule="evenodd" clip-rule="evenodd" d="M10.0916 1.36365H19.3643H19.6371H20.728L27.0007 8.18183V9.27274V9.81819V22.3636C27.0007 23.8699 25.7797 25.0909 24.2734 25.0909H22.9098V25.9091C22.9098 27.4153 21.6888 28.6364 20.1825 28.6364H6.00071C4.49448 28.6364 3.27344 27.4153 3.27344 25.9091V7.63638C3.27344 6.13014 4.49448 4.9091 6.00071 4.9091H7.36435V4.09092C7.36435 2.58469 8.58539 1.36365 10.0916 1.36365ZM25.6371 8.18183L20.728 3.00001V6.81819C20.728 7.57131 21.3385 8.18183 22.0916 8.18183H25.6371ZM10.0916 3.00001H19.3643V7.09092C19.3643 8.59715 20.5854 9.81819 22.0916 9.81819H25.6371V22.0909C25.6371 22.844 25.0266 23.4546 24.2734 23.4546H10.0916C9.3385 23.4546 8.72798 22.844 8.72798 22.0909V4.36365C8.72798 3.61053 9.3385 3.00001 10.0916 3.00001ZM7.36435 6.54547H6.00071C5.24759 6.54547 4.63707 7.15599 4.63707 7.9091V25.6364C4.63707 26.3895 5.24759 27 6.00071 27H20.1825C20.9356 27 21.5462 26.3895 21.5462 25.6364V25.0909H10.0916C8.58539 25.0909 7.36435 23.8699 7.36435 22.3636V6.54547ZM13.3643 13.3636C12.9125 13.3636 12.5462 13.73 12.5462 14.1818C12.5462 14.6337 12.9125 15 13.3643 15H21.0007C21.4526 15 21.8189 14.6337 21.8189 14.1818C21.8189 13.73 21.4526 13.3636 21.0007 13.3636H13.3643ZM12.5462 18.2727C12.5462 17.8209 12.9125 17.4546 13.3643 17.4546H21.0007C21.4526 17.4546 21.8189 17.8209 21.8189 18.2727C21.8189 18.7246 21.4526 19.0909 21.0007 19.0909H13.3643C12.9125 19.0909 12.5462 18.7246 12.5462 18.2727Z" fill="#303030"/>
</svg>
