<svg width="30" height="30" viewBox="0 0 30 30" fill="none" xmlns="http://www.w3.org/2000/svg">
<path fill-rule="evenodd" clip-rule="evenodd" d="M25 15C25 20.5229 20.5229 25 15 25C9.47715 25 5 20.5229 5 15C5 9.47715 9.47715 5 15 5C20.5229 5 25 9.47715 25 15ZM23.4 15C23.4 19.6392 19.6393 23.4 15 23.4C10.3607 23.4 6.6 19.6392 6.6 15C6.6 10.3608 10.3607 6.6 15 6.6C19.6393 6.6 23.4 10.3608 23.4 15ZM17.5557 12.687C17.868 12.3746 18.3746 12.3746 18.6869 12.687C18.9994 12.9994 18.9994 13.506 18.6869 13.8184L14.7271 17.7782C14.4148 18.0906 13.9082 18.0906 13.5959 17.7782L11.4746 15.6569C11.1621 15.3444 11.1621 14.8379 11.4746 14.5255C11.7869 14.2131 12.2936 14.2131 12.6059 14.5255L14.1615 16.0811L17.5557 12.687Z" fill="#303030"/>
<path fill-rule="evenodd" clip-rule="evenodd" d="M13.1054 0.697764C14.1972 -0.232588 15.8028 -0.232588 16.8946 0.697764L19.5457 2.95709C19.7584 3.13831 20.0228 3.24782 20.3013 3.27005L23.7736 3.54714C25.2034 3.66124 26.3388 4.79663 26.4529 6.22645L26.7299 9.69871C26.7522 9.97721 26.8617 10.2416 27.0429 10.4543L29.3022 13.1054C30.2326 14.1972 30.2326 15.8028 29.3022 16.8946L27.0429 19.5457C26.8617 19.7584 26.7522 20.0228 26.7299 20.3013L26.4529 23.7736C26.3388 25.2034 25.2034 26.3388 23.7736 26.4529L20.3013 26.7299C20.0228 26.7522 19.7584 26.8617 19.5457 27.0429L16.8946 29.3022C15.8028 30.2326 14.1972 30.2326 13.1054 29.3022L10.4543 27.0429C10.2416 26.8617 9.97721 26.7522 9.6987 26.7299L6.22645 26.4529C4.79663 26.3388 3.66124 25.2034 3.54714 23.7736L3.27005 20.3013C3.24782 20.0228 3.13831 19.7584 2.95709 19.5457L0.697764 16.8946C-0.232588 15.8028 -0.232588 14.1972 0.697764 13.1054L2.95709 10.4543C3.13831 10.2416 3.24782 9.97721 3.27005 9.69871L3.54714 6.22645C3.66124 4.79663 4.79663 3.66124 6.22645 3.54714L9.69871 3.27005C9.97721 3.24782 10.2416 3.13831 10.4543 2.95709L13.1054 0.697764ZM15.8612 1.91039C15.3649 1.48751 14.6351 1.48751 14.1388 1.91039L11.4876 4.16972C11.0198 4.5684 10.4382 4.80933 9.82544 4.85823L6.35318 5.13532C5.70327 5.18718 5.18718 5.70327 5.13532 6.35318L4.85823 9.82544C4.80933 10.4382 4.5684 11.0198 4.16972 11.4876L1.91039 14.1388C1.48751 14.6351 1.48751 15.3649 1.91039 15.8612L4.16972 18.5124C4.5684 18.9802 4.80933 19.5618 4.85823 20.1746L5.13532 23.6468C5.18718 24.2967 5.70327 24.8128 6.35318 24.8647L9.82544 25.1418C10.4382 25.1907 11.0198 25.4316 11.4876 25.8303L14.1388 28.0896C14.6351 28.5125 15.3649 28.5125 15.8612 28.0896L18.5124 25.8303C18.9802 25.4316 19.5618 25.1907 20.1746 25.1418L23.6468 24.8647C24.2967 24.8128 24.8128 24.2967 24.8647 23.6468L25.1418 20.1746C25.1907 19.5618 25.4316 18.9802 25.8303 18.5124L28.0896 15.8612C28.5125 15.3649 28.5125 14.6351 28.0896 14.1388L25.8303 11.4876C25.4316 11.0198 25.1907 10.4382 25.1418 9.82544L24.8647 6.35318C24.8128 5.70327 24.2967 5.18718 23.6468 5.13532L20.1746 4.85823C19.5618 4.80933 18.9802 4.5684 18.5124 4.16972L15.8612 1.91039Z" fill="#303030"/>
</svg>
