<svg width="18" height="18" viewBox="0 0 18 18" fill="none" xmlns="http://www.w3.org/2000/svg">
<path fill-rule="evenodd" clip-rule="evenodd" d="M18 9C18 13.9706 13.9706 18 9 18C4.02943 18 0 13.9706 0 9C0 4.02943 4.02943 0 9 0C13.9706 0 18 4.02943 18 9ZM16.56 9C16.56 13.1753 13.1753 16.56 9 16.56C4.82467 16.56 1.44 13.1753 1.44 9C1.44 4.82473 4.82467 1.44 9 1.44C13.1753 1.44 16.56 4.82473 16.56 9ZM11.3001 6.91831C11.5812 6.63713 12.0371 6.63713 12.3182 6.91831C12.5995 7.19947 12.5995 7.65536 12.3182 7.93655L8.75443 11.5004C8.47336 11.7815 8.01738 11.7815 7.73631 11.5004L5.82715 9.59117C5.5459 9.30999 5.5459 8.8541 5.82715 8.57294C6.10822 8.29175 6.5642 8.29175 6.84527 8.57294L8.24537 9.97301L11.3001 6.91831Z" fill="#303030"/>
</svg>
