<svg class="svg-icon" style="width: 1em; height: 1em;vertical-align: middle;fill: currentColor;overflow: hidden;" viewBox="0 0 1024 1024" version="1.1" xmlns="http://www.w3.org/2000/svg"><path d="M518.023742 722.487785a27.093292 27.093292 0 0 1-27.093292-27.093292V214.488561a27.093292 27.093292 0 0 1 54.186584 0V695.394493a27.093292 27.093292 0 0 1-27.093292 27.093292z" fill="#231815" /><path d="M518.023742 974.29284a462.392182 462.392182 0 0 1-326.925723-789.191469 462.392182 462.392182 0 0 1 653.851446 653.851445 459.321609 459.321609 0 0 1-326.925723 135.340024z m0-870.399097c-225.018821 0-408.097225 183.078405-408.097225 408.097226s183.078405 408.205599 408.097225 408.205598 408.205599-183.078405 408.205598-408.205598-183.168716-408.097225-408.205598-408.097226z" fill="#231815" /><path d="M518.023742 798.547687m-38.400226 0a38.400226 38.400226 0 1 0 76.800452 0 38.400226 38.400226 0 1 0-76.800452 0Z" fill="#231815" /></svg>