<svg width="31" height="50" viewBox="0 0 31 50" fill="none" xmlns="http://www.w3.org/2000/svg">
<path d="M0 23.1055V41.1573H4.16124H8.32704L8.45466 41.6476C8.85574 43.2099 9.62601 44.7906 10.6287 46.1193C11.677 47.5076 13.1902 48.8683 14.6395 49.7388L15.0771 50L15.542 49.7343C17.0688 48.85 18.5273 47.5396 19.6349 46.046C20.1544 45.3542 20.4644 44.8319 20.8563 44.0209C21.262 43.1779 21.4625 42.6372 21.6813 41.7988L21.8454 41.1573H26.0112H30.1724V23.1055V5.0536H30.0813C29.7896 5.0536 28.4314 5.98827 27.4013 6.90461C25.8699 8.26079 24.4524 10.1805 23.5409 12.1277C22.6795 13.965 22.1188 16.0817 21.9046 18.3176C21.6904 20.4893 21.6312 21.0529 21.4671 22.3953C21.2893 23.8614 21.1298 25.2589 20.9748 26.7754L20.8928 27.5864L21.3987 27.6047C21.9684 27.6276 22.2465 27.7101 22.7068 27.9896C23.6138 28.5439 24.1106 29.4878 23.9739 30.3766C23.8508 31.1601 23.3175 31.7924 22.2966 32.3605C22.1918 32.42 22.1143 32.4934 22.1234 32.5163C22.251 32.8141 22.5883 34.0649 22.7022 34.6376C22.7296 34.7979 22.7706 34.9262 22.7888 34.9262C22.8618 34.9262 23.6457 34.5918 23.8827 34.4589C24.9629 33.845 25.724 33.0019 26.1479 31.9481C26.4259 31.2655 26.4989 30.8577 26.5034 30.0238C26.5034 29.1121 26.4259 28.7593 26.0522 27.985C25.6283 27.1099 25.054 26.4593 24.2336 25.914C23.8964 25.6895 23.7642 25.575 23.7186 25.4605C23.6594 25.323 23.6776 25.126 23.8827 23.4628C24.1151 21.566 24.2792 20.0632 24.4068 18.7758C24.4433 18.3726 24.5208 17.7861 24.5709 17.47C24.8581 15.6602 25.6055 13.5572 26.4943 12.0636C26.8133 11.5275 27.5654 10.3684 27.5973 10.3684C27.611 10.3684 27.6201 16.7782 27.6201 24.6174V38.8665H22.4926H17.3651V40.0119V41.1573H18.1992C18.6595 41.1573 19.0469 41.1711 19.0606 41.1848C19.1016 41.2261 18.8418 42.1607 18.6413 42.7014C18.2539 43.7322 17.6431 44.7815 16.9184 45.6474C16.7179 45.8856 16.5128 46.1239 16.4581 46.1697L16.3624 46.2568L16.3715 42.2753L16.3852 38.2938L16.5401 37.9776C16.8273 37.3866 17.4745 36.8826 18.2447 36.6398C18.4544 36.5756 18.5045 36.539 18.5045 36.4611C18.5045 36.1037 18.2128 34.3489 18.1399 34.2665C18.0943 34.2206 17.5702 34.3902 17.2238 34.5643C16.8774 34.7384 16.1254 35.2515 15.5511 35.7005L15.0817 36.0717L14.5484 35.6501C13.9468 35.1782 13.3132 34.7475 12.9441 34.5597C12.5977 34.3856 12.0781 34.2206 12.0325 34.2665C11.9596 34.3444 11.6314 36.2962 11.6588 36.5161C11.6588 36.5298 11.8183 36.6031 12.0097 36.6719C12.8073 36.9651 13.3543 37.4049 13.6323 37.9776L13.7872 38.2938L13.7964 42.2569L13.81 46.2201L13.5092 45.9085C12.9623 45.3358 12.3333 44.4149 11.9231 43.5948C11.5767 42.8984 11.0252 41.2673 11.1118 41.1848C11.1255 41.1711 11.5129 41.1573 11.9733 41.1573H12.8073V40.0119V38.8665H7.67984H2.55235V24.6174C2.55235 16.7782 2.56147 10.3684 2.57058 10.3684C2.59793 10.3684 3.34996 11.5413 3.69179 12.1094C4.33444 13.1769 4.97708 14.7851 5.33259 16.21C5.53769 17.0301 5.67898 17.974 5.83394 19.5318C5.91142 20.3015 6.0755 21.7722 6.20312 22.8077C6.33074 23.8385 6.44468 24.8603 6.4538 25.0756C6.46513 25.2712 6.47177 25.3858 6.4328 25.4815C6.37776 25.6168 6.23175 25.7146 5.87954 25.9507L5.87952 25.9507C4.34811 26.9724 3.45023 28.7776 3.64621 30.4453C3.88778 32.5483 5.03177 34.0236 7.00984 34.7888C7.20127 34.8667 7.36991 34.9262 7.38358 34.9262C7.39726 34.9262 7.43828 34.7659 7.47018 34.5689C7.53855 34.1565 7.79378 33.144 7.93052 32.7545C7.98065 32.6033 8.02167 32.4796 8.02167 32.4704C8.02167 32.4659 7.85303 32.3559 7.64793 32.2276C6.57686 31.577 6.16666 30.9677 6.18033 30.0467C6.18945 29.3641 6.42189 28.8738 6.95059 28.3836C7.5431 27.8429 8.02167 27.6368 8.76459 27.6047C9.20669 27.5864 9.25227 27.5772 9.25227 27.4993C9.25227 27.3206 8.92411 24.3242 8.72812 22.6931C8.47745 20.6039 8.40452 19.9533 8.31793 18.9132C8.14473 16.9477 7.87582 15.5548 7.36079 14.0108C6.24414 10.6387 4.19314 7.82553 1.37645 5.80042C0.820398 5.40181 0.232448 5.0536 0.10483 5.0536H0V23.1055Z" fill="#303030"/>
<path d="M14.7763 0.284066C14.0653 1.00797 13.3862 2.35957 13.1537 3.49583C13.0033 4.23348 12.976 4.68707 13.0033 5.94704C13.0443 7.75681 13.2358 13.3831 13.4044 17.8136C13.5366 21.3049 13.1947 24.1364 12.3652 26.4501C12.0508 27.3206 11.791 27.8429 11.5175 28.1637C10.7974 28.993 10.0453 30.1384 9.53486 31.1784C8.64154 33.0065 8.17209 34.9262 8.08549 37.1071L8.05359 37.8585L9.39357 37.8494L10.7336 37.8356L10.7609 37.1484C10.7974 36.3695 11.007 34.9125 11.2076 34.0786C11.5813 32.53 12.2331 31.1326 13.1537 29.8864C13.5366 29.3732 14.5119 28.3607 14.872 28.1087L15.0908 27.9529L15.6195 28.4752C17.3378 30.1704 18.5365 32.2826 19.0241 34.4726C19.1837 35.2011 19.3705 36.5802 19.4024 37.2766L19.4298 37.8585L20.7561 37.8494L22.0824 37.8356L22.0687 37.24C22.0368 35.4669 21.6676 33.7121 20.9931 32.0627C20.4644 30.7844 19.5346 29.2679 18.6458 28.2416C18.5091 28.0812 18.3587 27.8521 18.3131 27.7376C18.2721 27.623 18.1536 27.3252 18.0533 27.0778C17.4699 25.6529 17.0369 23.8615 16.8455 22.0517C16.6678 20.3977 16.645 19.0369 16.7498 16.4849C16.7863 15.5778 16.8592 13.5664 16.9093 12.0178C16.9595 10.4692 17.0324 8.27454 17.0734 7.14286C17.1509 4.91158 17.1281 4.34803 16.9504 3.50041C16.6906 2.30001 16.0844 1.09044 15.3551 0.316136L15.0543 0L14.7763 0.284066Z" fill="#303030"/>
</svg>
