<svg width="24" height="24" viewBox="0 0 24 24" fill="none" xmlns="http://www.w3.org/2000/svg">
<path fill-rule="evenodd" clip-rule="evenodd" d="M3.60043 4.3201C3.60043 3.92248 3.9227 3.6001 4.32043 3.6001C4.71816 3.6001 5.04043 3.92248 5.04043 4.3201V9.2108C6.28262 9.53049 7.20043 10.6582 7.20043 12.0001C7.20043 13.342 6.28262 14.4697 5.04043 14.7894V19.6801C5.04043 20.0777 4.71816 20.4001 4.32043 20.4001C3.9227 20.4001 3.60043 20.0777 3.60043 19.6801V14.7894C2.35824 14.4697 1.44043 13.342 1.44043 12.0001C1.44043 10.6582 2.35824 9.53049 3.60043 9.2108V4.3201ZM5.76043 12.0001C5.76043 12.7953 5.11566 13.4401 4.32043 13.4401C3.5252 13.4401 2.88043 12.7953 2.88043 12.0001C2.88043 11.2049 3.5252 10.5601 4.32043 10.5601C5.11566 10.5601 5.76043 11.2049 5.76043 12.0001ZM12.7204 9.2694C13.9626 8.94971 14.8804 7.82201 14.8804 6.4801C14.8804 4.88951 13.5909 3.6001 12.0004 3.6001C10.41 3.6001 9.12043 4.88951 9.12043 6.4801C9.12043 7.82201 10.0382 8.94971 11.2804 9.2694V19.6801C11.2804 20.0777 11.6027 20.4001 12.0004 20.4001C12.3982 20.4001 12.7204 20.0777 12.7204 19.6801V9.2694ZM13.4404 6.4801C13.4404 7.27533 12.7957 7.9201 12.0004 7.9201C11.2052 7.9201 10.5604 7.27533 10.5604 6.4801C10.5604 5.68486 11.2052 5.0401 12.0004 5.0401C12.7957 5.0401 13.4404 5.68486 13.4404 6.4801ZM19.6804 3.6001C19.2827 3.6001 18.9604 3.92248 18.9604 4.3201V11.8508C17.7182 12.1705 16.8004 13.2982 16.8004 14.6401C16.8004 15.982 17.7182 17.1097 18.9604 17.4294V19.6801C18.9604 20.0777 19.2827 20.4001 19.6804 20.4001C20.0782 20.4001 20.4004 20.0777 20.4004 19.6801V17.4294C21.6426 17.1097 22.5604 15.982 22.5604 14.6401C22.5604 13.2982 21.6426 12.1705 20.4004 11.8508V4.3201C20.4004 3.92248 20.0782 3.6001 19.6804 3.6001ZM19.6804 16.0801C20.4757 16.0801 21.1204 15.4353 21.1204 14.6401C21.1204 13.8449 20.4757 13.2001 19.6804 13.2001C18.8852 13.2001 18.2404 13.8449 18.2404 14.6401C18.2404 15.4353 18.8852 16.0801 19.6804 16.0801Z" fill="#202121"/>
</svg>
