<svg width="30" height="50" viewBox="0 0 30 50" fill="none" xmlns="http://www.w3.org/2000/svg">
<path d="M0 22.9734V40.9221H4.13746H8.27946L8.40634 41.4096C8.80514 42.963 9.571 44.5347 10.568 45.8558C11.6103 47.2361 13.1148 48.5891 14.5559 49.4546L14.9909 49.7143L15.4532 49.4501C16.9713 48.5708 18.4215 47.268 19.5227 45.7829C20.0393 45.095 20.3474 44.5757 20.7372 43.7693C21.1405 42.9311 21.3399 42.3936 21.5574 41.5599L21.7205 40.9221H25.8625H30V22.9734V5.02472H29.9094C29.6193 5.02472 28.2689 5.95405 27.2447 6.86515C25.7221 8.21358 24.3127 10.1223 23.4063 12.0584C22.5499 13.8852 21.9925 15.9898 21.7795 18.2129C21.5665 20.3722 21.5076 20.9326 21.3444 22.2673C21.1677 23.7251 21.0091 25.1145 20.855 26.6224L20.7734 27.4287L21.2764 27.4469C21.8429 27.4697 22.1193 27.5517 22.577 27.8296C23.4789 28.3808 23.9728 29.3193 23.8369 30.203C23.7145 30.982 23.1843 31.6107 22.1692 32.1756C22.065 32.2348 21.9879 32.3077 21.997 32.3305C22.1239 32.6266 22.4592 33.8702 22.5725 34.4397C22.5997 34.5991 22.6405 34.7267 22.6586 34.7267C22.7311 34.7267 23.5106 34.3941 23.7462 34.262C24.8202 33.6516 25.577 32.8133 25.9985 31.7656C26.2749 31.0868 26.3474 30.6814 26.352 29.8523C26.352 28.9457 26.2749 28.5949 25.9033 27.8251C25.4819 26.955 24.9109 26.3081 24.0952 25.766C23.7598 25.5427 23.6284 25.4289 23.5831 25.315C23.5242 25.1783 23.5423 24.9824 23.7462 23.3288C23.9773 21.4428 24.1405 19.9486 24.2674 18.6685C24.3036 18.2676 24.3807 17.6845 24.4305 17.3702C24.716 15.5707 25.4592 13.4798 26.3429 11.9947C26.6601 11.4617 27.4079 10.3091 27.4396 10.3091C27.4532 10.3091 27.4622 16.6823 27.4622 24.4768V38.6444H22.364H17.2659V39.7833V40.9221H18.0952C18.5529 40.9221 18.9381 40.9358 18.9517 40.9495C18.9924 40.9905 18.7341 41.9198 18.5347 42.4574C18.1495 43.4823 17.5423 44.5256 16.8218 45.3866C16.6224 45.6234 16.4184 45.8603 16.364 45.9059L16.2689 45.9924L16.2779 42.0337L16.2915 38.075L16.4456 37.7606C16.7311 37.173 17.3746 36.6719 18.1405 36.4304C18.3489 36.3666 18.3988 36.3302 18.3988 36.2528C18.3988 35.8974 18.1088 34.1527 18.0363 34.0707C17.9909 34.0251 17.4698 34.1937 17.1254 34.3668C16.781 34.5399 16.0332 35.0501 15.4622 35.4965L14.9955 35.8655L14.4653 35.4464C13.8671 34.9772 13.2372 34.549 12.8701 34.3622C12.5257 34.1891 12.0091 34.0251 11.9637 34.0707C11.8912 34.1481 11.565 36.0887 11.5921 36.3074C11.5921 36.3211 11.7508 36.394 11.9411 36.4623C12.7341 36.7539 13.2779 37.1912 13.5544 37.7606L13.7085 38.075L13.7175 42.0155L13.7311 45.956L13.432 45.6462C12.8882 45.0768 12.2628 44.1611 11.855 43.3457C11.5106 42.6532 10.9622 41.0315 11.0483 40.9495C11.0619 40.9358 11.4471 40.9221 11.9048 40.9221H12.7341V39.7833V38.6444H7.63595H2.53777V24.4768C2.53777 16.6823 2.54683 10.3091 2.55589 10.3091C2.58308 10.3091 3.33082 11.4753 3.6707 12.0402C4.30967 13.1016 4.94864 14.7006 5.30212 16.1174C5.50604 16.9328 5.64653 17.8713 5.8006 19.4201C5.87764 20.1855 6.04079 21.6478 6.16767 22.6773C6.29456 23.7023 6.40785 24.7182 6.41692 24.9323C6.42819 25.1268 6.43479 25.2407 6.39604 25.3359C6.34131 25.4704 6.19614 25.5677 5.84594 25.8024L5.84592 25.8024C4.32326 26.8183 3.43051 28.6132 3.62538 30.2714C3.86556 32.3623 5.00302 33.8292 6.96979 34.59C7.16012 34.6674 7.32779 34.7267 7.34139 34.7267C7.35499 34.7267 7.39577 34.5672 7.4275 34.3713C7.49547 33.9613 7.74925 32.9546 7.8852 32.5673C7.93505 32.417 7.97583 32.294 7.97583 32.2849C7.97583 32.2803 7.80816 32.171 7.60423 32.0435C6.53928 31.3966 6.13142 30.7907 6.14502 29.875C6.15408 29.1963 6.3852 28.7088 6.91088 28.2214C7.5 27.6838 7.97583 27.4788 8.7145 27.4469C9.15408 27.4287 9.1994 27.4196 9.1994 27.3422C9.1994 27.1645 8.87311 24.1852 8.67825 22.5634C8.429 20.4861 8.3565 19.8392 8.2704 18.8051C8.09819 16.8508 7.83082 15.466 7.31873 13.9307C6.20846 10.5779 4.16918 7.78081 1.36858 5.76727C0.81571 5.37095 0.231119 5.02472 0.104231 5.02472H0V22.9734Z" fill="#202121"/>
<path d="M14.6919 0.282442C13.9849 1.00221 13.3097 2.34609 13.0786 3.47585C12.929 4.20929 12.9018 4.66029 12.929 5.91305C12.9698 7.71248 13.1601 13.3066 13.3278 17.7118C13.4592 21.1831 13.1194 23.9984 12.2946 26.299C11.9819 27.1645 11.7236 27.6838 11.4517 28.0027C10.7357 28.8273 9.98793 29.9662 9.48038 31.0003C8.59216 32.8179 8.12539 34.7267 8.03929 36.8951L8.00757 37.6422L9.3399 37.6331L10.6722 37.6194L10.6994 36.9361C10.7357 36.1616 10.9441 34.713 11.1435 33.8839C11.5151 32.3441 12.1632 30.9547 13.0786 29.7156C13.4592 29.2054 14.429 28.1986 14.787 27.9481L15.0045 27.7932L15.5302 28.3125C17.2387 29.998 18.4305 32.0981 18.9154 34.2757C19.074 35 19.2598 36.3712 19.2916 37.0636L19.3187 37.6422L20.6375 37.6331L21.9562 37.6194L21.9426 37.0272C21.9109 35.2642 21.5438 33.5194 20.8731 31.8795C20.3474 30.6085 19.423 29.1006 18.5393 28.0802C18.4033 27.9207 18.2538 27.693 18.2085 27.5791C18.1677 27.4652 18.0499 27.1691 17.9502 26.9231C17.3701 25.5063 16.9396 23.7251 16.7493 21.9257C16.5725 20.2811 16.5499 18.9281 16.6541 16.3907C16.6903 15.4887 16.7629 13.4889 16.8127 11.9491C16.8626 10.4093 16.9351 8.22725 16.9758 7.10204C17.0529 4.88351 17.0302 4.32318 16.8535 3.48041C16.5952 2.28687 15.9925 1.08421 15.2674 0.31433L14.9683 0L14.6919 0.282442Z" fill="#202121"/>
</svg>
