<?xml version="1.0" standalone="no"?>
<!DOCTYPE svg PUBLIC "-//W3C//DTD SVG 20010904//EN"
 "http://www.w3.org/TR/2001/REC-SVG-20010904/DTD/svg10.dtd">
<svg version="1.0" xmlns="http://www.w3.org/2000/svg"
 width="2400.000000pt" height="2246.000000pt" viewBox="0 0 2400.000000 2246.000000"
 preserveAspectRatio="xMidYMid meet">

<g transform="translate(0.000000,2246.000000) scale(0.100000,-0.100000)"
fill="#000000" stroke="none">
<path d="M7735 20539 c-1094 -56 -2130 -396 -3025 -992 -1379 -919 -2312
-2358 -2584 -3987 -177 -1055 -70 -2132 309 -3135 384 -1016 1075 -1946 1926
-2595 l120 -92 -20 -31 c-272 -441 -330 -945 -164 -1420 137 -395 424 -720
798 -907 239 -119 457 -171 721 -172 l151 0 6 -182 c7 -204 25 -314 81 -481
175 -522 596 -915 1126 -1050 149 -38 233 -49 401 -49 l157 -1 0 -155 c1 -347
95 -646 296 -940 77 -113 281 -313 401 -392 188 -124 374 -203 586 -249 68
-15 148 -22 285 -26 l191 -6 6 -186 c6 -203 23 -309 78 -474 234 -705 929
-1162 1668 -1099 381 33 694 172 986 440 192 176 1886 1879 1952 1964 154 195
268 442 318 688 9 47 18 86 19 88 2 1 29 -7 62 -18 32 -12 115 -33 184 -47
109 -23 149 -27 315 -27 158 0 209 3 303 22 569 114 1020 494 1217 1027 71
192 114 461 101 630 l-6 81 158 1 c286 2 507 56 760 188 145 76 249 153 377
280 163 163 277 335 359 540 78 199 118 420 115 633 l-2 122 174 4 c263 6 455
50 679 157 584 279 950 896 915 1544 l-6 110 126 135 c506 542 905 1172 1181
1867 212 533 345 1100 400 1703 24 255 24 767 0 1020 -31 336 -85 657 -161
962 -333 1320 -1109 2489 -2200 3313 -1554 1173 -3604 1514 -5465 909 -750
-244 -1478 -652 -2041 -1146 -37 -32 -70 -58 -73 -58 -4 0 -43 32 -89 71 -189
164 -461 364 -697 511 -886 554 -1854 856 -2915 908 -230 11 -334 11 -560 -1z
m650 -749 c1102 -80 2121 -487 2970 -1185 52 -43 95 -81 95 -84 0 -3 -988
-996 -2195 -2206 l-2193 -2200 151 -153 c272 -274 468 -440 717 -607 707 -473
1454 -635 2117 -460 265 70 522 201 743 378 41 33 728 712 1525 1509 l1450
1448 2766 -2768 c1521 -1522 2779 -2785 2796 -2807 117 -158 170 -340 160
-551 -7 -142 -23 -208 -82 -331 -133 -274 -390 -456 -698 -494 -191 -23 -408
31 -577 144 -25 16 -957 941 -2072 2056 l-2028 2026 -265 -265 -265 -265 2009
-2010 c1283 -1284 2025 -2033 2053 -2075 168 -240 208 -512 117 -785 -74 -222
-237 -406 -452 -510 -124 -59 -190 -75 -334 -82 -211 -10 -373 37 -543 155
-42 29 -786 765 -2078 2056 l-2012 2011 -263 -263 -262 -262 2001 -2003 c1101
-1101 2021 -2029 2046 -2062 66 -88 103 -158 139 -265 28 -83 33 -112 36 -225
4 -116 2 -141 -21 -230 -71 -274 -228 -468 -479 -591 -134 -65 -246 -88 -410
-82 -115 4 -145 9 -229 38 -54 18 -135 55 -180 83 -110 67 -284 237 -353 342
-259 399 -654 654 -1125 725 -41 6 -75 12 -77 13 -1 2 9 39 23 82 14 44 34
134 46 200 27 158 21 457 -11 603 -139 626 -612 1104 -1226 1241 -468 104
-955 -1 -1333 -286 -46 -35 -85 -63 -87 -63 -2 0 -7 15 -10 32 -29 134 -114
342 -195 473 -107 175 -291 369 -459 484 -120 82 -309 172 -451 214 -311 94
-676 89 -978 -13 -47 -16 -87 -28 -87 -27 -1 1 -9 49 -18 106 -34 205 -129
437 -258 631 -81 122 -281 323 -404 406 -212 144 -454 238 -705 275 -126 18
-369 13 -504 -10 -267 -47 -535 -168 -741 -334 -27 -22 -195 -184 -372 -360
l-321 -320 -104 78 c-550 416 -1004 922 -1369 1525 -91 151 -265 500 -337 677
-163 398 -283 845 -341 1263 -39 278 -46 391 -46 730 0 339 7 452 46 730 119
864 457 1685 984 2395 263 355 639 739 996 1017 550 428 1208 753 1880 928
344 89 593 129 1024 163 99 8 533 6 660 -3z m7940 0 c698 -51 1341 -225 1960
-530 528 -260 973 -578 1390 -996 408 -408 715 -833 975 -1349 304 -604 477
-1213 542 -1910 16 -181 16 -689 0 -870 -95 -1022 -442 -1927 -1047 -2730 -95
-125 -212 -265 -223 -265 -4 0 -1391 1384 -3082 3075 l-3075 3075 -1720 -1718
c-1404 -1403 -1737 -1730 -1810 -1781 -296 -207 -620 -265 -1025 -185 -293 58
-620 218 -953 467 l-109 80 1918 1918 c1055 1055 1921 1916 1926 1913 4 -3 22
12 40 33 92 105 243 261 361 372 879 823 1991 1309 3202 1400 161 12 569 12
730 1z m-9444 -9224 c204 -43 413 -181 535 -352 53 -74 116 -206 138 -289 24
-86 31 -258 17 -350 -21 -127 -67 -247 -134 -344 l-31 -45 -11 40 -11 39 -28
-85 -28 -85 -445 -446 -444 -445 -87 -29 -87 -29 39 -11 40 -11 -45 -31 c-151
-103 -331 -151 -527 -140 -127 8 -198 25 -309 77 -102 48 -161 88 -242 164
-235 224 -327 562 -236 871 25 87 89 220 123 258 15 17 17 16 27 -20 l11 -38
28 85 28 85 445 446 444 445 87 29 87 29 -39 11 -40 11 45 31 c86 59 212 111
320 132 70 14 258 12 330 -3z m2244 -1336 c344 -87 604 -378 656 -732 31 -215
-34 -462 -169 -638 -79 -102 -1456 -1470 -1531 -1520 -245 -164 -542 -198
-814 -92 -161 62 -344 217 -430 363 -177 302 -163 675 37 953 64 88 1487 1504
1559 1550 207 134 456 176 692 116z m2535 -861 c569 -71 916 -652 709 -1189
-65 -169 -45 -148 -1278 -1383 -630 -632 -1171 -1168 -1202 -1192 -354 -276
-855 -238 -1165 86 -103 109 -175 235 -216 376 -30 104 -33 342 -4 443 24 89
87 220 140 293 24 34 575 591 1223 1237 1084 1082 1184 1179 1255 1219 97 54
200 90 303 106 103 17 133 17 235 4z m1485 -2184 c461 -128 741 -604 624
-1062 -21 -85 -74 -202 -120 -270 -59 -85 -310 -341 -1175 -1198 -938 -928
-892 -888 -1094 -956 -83 -28 -112 -33 -230 -37 -114 -3 -149 -1 -225 17 -361
86 -630 389 -676 762 -20 171 24 373 119 534 42 72 142 175 1027 1063 762 765
997 994 1055 1033 83 55 190 100 295 123 90 20 313 15 400 -9z"/>
</g>
</svg>
