<svg width="30" height="30" viewBox="0 0 30 30" fill="none" xmlns="http://www.w3.org/2000/svg">
<path fill-rule="evenodd" clip-rule="evenodd" d="M14.9996 7.04911L13.2076 5.20709C10.3843 2.30484 5.09977 3.2641 3.18202 7.00936C2.30586 8.72048 2.05474 11.2761 3.77168 14.6634C5.40303 17.8818 8.80305 21.7971 14.9995 26.1054C21.1961 21.7967 24.5961 17.8812 26.2275 14.6626C27.9445 11.2752 27.6933 8.71965 26.8172 7.0087C24.8996 3.26387 19.6151 2.30465 16.7915 5.20709L14.9996 7.04911ZM14.9996 29.1251C-13.7484 10.13 6.14643 -4.7004 14.6692 3.14248C14.7814 3.24566 14.8915 3.35277 14.9996 3.46385C15.1077 3.35277 15.2178 3.24565 15.33 3.14246C23.8528 -4.70042 43.7476 10.1282 14.9996 29.1251Z" fill="#303030"/>
</svg>
