<svg width="30" height="30" viewBox="0 0 30 30" fill="none" xmlns="http://www.w3.org/2000/svg">
<path fill-rule="evenodd" clip-rule="evenodd" d="M30 15C30 23.2843 23.2843 30 15 30C6.71572 30 0 23.2843 0 15C0 6.71572 6.71572 0 15 0C23.2843 0 30 6.71572 30 15ZM27.6 15C27.6 21.9588 21.9589 27.6 15 27.6C8.04111 27.6 2.4 21.9588 2.4 15C2.4 8.04122 8.04111 2.4 15 2.4C21.9589 2.4 27.6 8.04122 27.6 15Z" fill="#303030"/>
<path d="M13.2816 18.2412V18.0429C13.2868 17.1227 13.3747 16.3905 13.5454 15.8465C13.7212 15.3025 13.9695 14.8653 14.2901 14.5348C14.6108 14.1992 15.0013 13.8916 15.4616 13.612C15.7771 13.4188 16.059 13.2078 16.3072 12.979C16.5606 12.7452 16.7598 12.4859 16.9046 12.2011C17.0494 11.9113 17.1218 11.5885 17.1218 11.2326C17.1218 10.831 17.0261 10.4827 16.8348 10.1878C16.6434 9.89291 16.3848 9.66413 16.059 9.50143C15.7383 9.33874 15.3788 9.25739 14.9806 9.25739C14.6134 9.25739 14.2643 9.33619 13.9333 9.4938C13.6074 9.64633 13.3359 9.8802 13.1187 10.1954C12.9066 10.5056 12.7877 10.8996 12.7618 11.3775H10C10.0259 10.4115 10.2638 9.60311 10.7137 8.95234C11.1689 8.30156 11.7688 7.81347 12.5136 7.48808C13.2635 7.16269 14.091 7 14.9961 7C15.984 7 16.8529 7.17032 17.6028 7.51096C18.3579 7.85161 18.9449 8.33715 19.3638 8.96759C19.7879 9.59295 20 10.3352 20 11.1945C20 11.7741 19.9043 12.2927 19.713 12.7502C19.5268 13.2078 19.2604 13.6146 18.9139 13.9704C18.5674 14.3263 18.1562 14.6441 17.6804 14.9237C17.2614 15.1779 16.9175 15.4423 16.6486 15.7169C16.3848 15.9914 16.1883 16.3143 16.059 16.6854C15.9348 17.0515 15.8702 17.504 15.865 18.0429V18.2412H13.2816ZM14.6315 23C14.166 23 13.7652 22.8373 13.429 22.5119C13.0928 22.1865 12.9247 21.79 12.9247 21.3222C12.9247 20.8646 13.0928 20.4731 13.429 20.1478C13.7652 19.8224 14.166 19.6597 14.6315 19.6597C15.0918 19.6597 15.49 19.8224 15.8262 20.1478C16.1676 20.4731 16.3382 20.8646 16.3382 21.3222C16.3382 21.6323 16.2581 21.9145 16.0978 22.1687C15.9426 22.4229 15.7357 22.6263 15.4771 22.7788C15.2237 22.9263 14.9418 23 14.6315 23Z" fill="#303030"/>
</svg>
