<svg width="30" height="30" viewBox="0 0 30 30" fill="none" xmlns="http://www.w3.org/2000/svg">
<path fill-rule="evenodd" clip-rule="evenodd" d="M1.19249e-07 15C8.43483e-07 6.71573 6.71573 -3.22767e-06 15 -2.50343e-06C23.2843 -1.7792e-06 30 6.71573 30 15C30 23.2843 23.2843 30 15 30C6.71573 30 -6.04985e-07 23.2843 1.19249e-07 15ZM2.4 15C2.4 8.04121 8.04121 2.4 15 2.4C21.9588 2.4 27.6 8.04121 27.6 15C27.6 21.9588 21.9588 27.6 15 27.6C8.04121 27.6 2.4 21.9588 2.4 15ZM16.2 21.3C16.2 21.9627 15.6627 22.5 15 22.5C14.3373 22.5 13.8 21.9627 13.8 21.3L13.8 13.5C13.8 12.8373 14.3373 12.3 15 12.3C15.6627 12.3 16.2 12.8373 16.2 13.5L16.2 21.3ZM13.5 9.6C13.5 8.77157 14.1716 8.1 15 8.1C15.8284 8.1 16.5 8.77157 16.5 9.6C16.5 10.4284 15.8284 11.1 15 11.1C14.1716 11.1 13.5 10.4284 13.5 9.6Z" fill="#303030"/>
</svg>
