<svg width="30" height="30" viewBox="0 0 30 30" fill="none" xmlns="http://www.w3.org/2000/svg">
<path fill-rule="evenodd" clip-rule="evenodd" d="M30 15C30 23.2843 23.2843 30 15 30C6.71572 30 0 23.2843 0 15C0 6.71572 6.71572 0 15 0C23.2843 0 30 6.71572 30 15ZM27.6 15C27.6 21.9588 21.9589 27.6 15 27.6C8.04111 27.6 2.4 21.9588 2.4 15C2.4 8.04122 8.04111 2.4 15 2.4C21.9589 2.4 27.6 8.04122 27.6 15ZM18.8335 11.5305C19.302 11.0619 20.0619 11.0619 20.5304 11.5305C20.9991 11.9991 20.9991 12.7589 20.5304 13.2276L14.5907 19.1673C14.1223 19.6359 13.3623 19.6359 12.8938 19.1673L9.71191 15.9853C9.24316 15.5167 9.24316 14.7568 9.71191 14.2882C10.1804 13.8196 10.9403 13.8196 11.4088 14.2882L13.7423 16.6217L18.8335 11.5305Z" fill="#303030"/>
</svg>
