<svg width="30" height="30" viewBox="0 0 30 30" fill="none" xmlns="http://www.w3.org/2000/svg">
<path fill-rule="evenodd" clip-rule="evenodd" d="M30 15C30 23.2843 23.2843 30 15 30C6.71573 30 0 23.2843 0 15C0 6.71573 6.71573 0 15 0C23.2843 0 30 6.71573 30 15ZM27.6 15C27.6 21.9588 21.9588 27.6 15 27.6C8.04121 27.6 2.4 21.9588 2.4 15C2.4 8.04121 8.04121 2.4 15 2.4C21.9588 2.4 27.6 8.04121 27.6 15ZM13.8 8.7C13.8 8.03726 14.3373 7.5 15 7.5C15.6627 7.5 16.2 8.03726 16.2 8.7V16.5C16.2 17.1627 15.6627 17.7 15 17.7C14.3373 17.7 13.8 17.1627 13.8 16.5V8.7ZM16.5 20.4C16.5 21.2284 15.8284 21.9 15 21.9C14.1716 21.9 13.5 21.2284 13.5 20.4C13.5 19.5716 14.1716 18.9 15 18.9C15.8284 18.9 16.5 19.5716 16.5 20.4Z" fill="#303030"/>
</svg>
