<svg width="24" height="24" viewBox="0 0 24 24" fill="none" xmlns="http://www.w3.org/2000/svg">
<path fill-rule="evenodd" clip-rule="evenodd" d="M6.15392 3.89638C7.55505 2.5513 9.46126 1.79087 11.4546 1.79087C13.4479 1.79087 15.3541 2.5513 16.7552 3.89638C18.1554 5.24053 18.9364 7.05735 18.9364 8.94542V10.2092H16.9091C16.2348 10.2092 15.5922 10.4849 15.1216 10.969C14.6516 11.4524 14.3909 12.104 14.3909 12.7794V15.5846C14.3909 16.2599 14.6516 16.9115 15.1216 17.3949C15.5922 17.879 16.2348 18.1547 16.9091 18.1547H17.8182C17.8681 18.1547 17.9178 18.1532 17.9672 18.1502C17.8999 18.5125 17.7767 18.9652 17.5528 19.4129C17.3098 19.899 16.953 20.3699 16.4272 20.7204C15.9046 21.0689 15.1853 21.3183 14.1819 21.3183H14.1243C13.8984 20.3542 13.033 19.6363 12 19.6363C10.7951 19.6363 9.81822 20.6131 9.81822 21.8181C9.81822 23.0231 10.7951 23.9999 12 23.9999C13.0329 23.9999 13.8982 23.2822 14.1243 22.3183H14.1819C15.3603 22.3183 16.2773 22.0222 16.9819 21.5525C17.6835 21.0848 18.1449 20.4648 18.4473 19.8601C18.7487 19.2573 18.8969 18.6605 18.9705 18.2187C18.9941 18.0771 19.0103 17.9502 19.0213 17.8424C19.2349 17.7239 19.432 17.5736 19.6058 17.3949C20.0757 16.9115 20.3364 16.2599 20.3364 15.5846L20.3364 14.1818L20.3364 10.9092L20.3364 10.9076V8.94542C20.3364 6.66717 19.3934 4.48832 17.7248 2.88644C16.0571 1.2855 13.8012 0.390869 11.4546 0.390869C9.10798 0.390869 6.85203 1.28549 5.18438 2.88644C3.51576 4.48832 2.57275 6.66717 2.57275 8.94542V10.9092V14.1818V15.5846C2.57275 16.2599 2.83341 16.9115 3.30339 17.3949C3.77402 17.879 4.41661 18.1547 5.09094 18.1547H6.00003C6.67435 18.1547 7.31694 17.879 7.78757 17.3949C8.25755 16.9115 8.51821 16.2599 8.51821 15.5846V12.7794C8.51821 12.104 8.25755 11.4524 7.78757 10.969C7.31694 10.4849 6.67436 10.2092 6.00003 10.2092H3.97275V8.94542C3.97275 7.05735 4.75377 5.24053 6.15392 3.89638ZM3.97275 11.6092V14.1818V15.5846C3.97275 15.9012 4.09521 16.201 4.30718 16.419C4.5185 16.6363 4.80084 16.7547 5.09094 16.7547H6.00003C6.29012 16.7547 6.57246 16.6363 6.78378 16.419C6.99575 16.201 7.11821 15.9012 7.11821 15.5846V12.7794C7.11821 12.4628 6.99575 12.163 6.78378 11.9449C6.57246 11.7276 6.29012 11.6092 6.00003 11.6092H3.97275ZM18.9364 11.6092H16.9091C16.619 11.6092 16.3367 11.7276 16.1254 11.9449C15.9134 12.163 15.7909 12.4628 15.7909 12.7794V15.5846C15.7909 15.9012 15.9134 16.201 16.1254 16.419C16.3367 16.6363 16.619 16.7547 16.9091 16.7547H17.8182C18.1083 16.7547 18.3906 16.6363 18.602 16.419C18.8139 16.201 18.9364 15.9012 18.9364 15.5846V14.1818V11.6092Z" fill="#333333"/>
</svg>
