<svg width="12" height="12" viewBox="0 0 12 12" fill="none" xmlns="http://www.w3.org/2000/svg">
<path fill-rule="evenodd" clip-rule="evenodd" d="M0 3.975C0 2.04618 1.5768 0.5 3.5 0.5C4.5384 0.5 5.38904 1.05175 5.90583 1.48008C5.93798 1.50673 5.96938 1.53335 6 1.55985C6.03062 1.53335 6.06202 1.50673 6.09417 1.48008C6.61096 1.05175 7.4616 0.5 8.5 0.5C10.4232 0.5 12 2.04618 12 3.975C12 4.67164 11.8586 5.78056 11.1093 7.0804C10.3633 8.37453 9.04637 9.80343 6.77972 11.1969L6.7758 11.1993L6.7758 11.1993C6.54202 11.3415 6.27364 11.4168 6 11.4168C5.72636 11.4168 5.45798 11.3415 5.2242 11.1993L5.22028 11.1969C2.95363 9.80343 1.63666 8.37453 0.890691 7.0804C0.141428 5.78056 0 4.67164 0 3.975ZM3.5 2.5C2.6622 2.5 2 3.16982 2 3.975C2 4.38186 2.07732 5.13419 2.62343 6.0816C3.14827 6.99211 4.13455 8.13189 6 9.32524C7.86545 8.13189 8.85173 6.99211 9.37657 6.0816C9.92268 5.13419 10 4.38186 10 3.975C10 3.16982 9.3378 2.5 8.5 2.5C8.1579 2.5 7.75854 2.69825 7.37045 3.01992C7.19061 3.16898 7.04258 3.32034 6.93989 3.43448C6.88913 3.4909 6.85096 3.53653 6.82708 3.56594C6.81517 3.5806 6.80693 3.59109 6.80256 3.59672L6.79912 3.60117C6.61026 3.85223 6.31431 4 6 4C5.68569 4 5.38974 3.85223 5.20088 3.60117L5.19744 3.59672C5.19307 3.59109 5.18483 3.5806 5.17292 3.56594C5.14904 3.53653 5.11087 3.4909 5.06011 3.43448C4.95742 3.32034 4.80939 3.16898 4.62955 3.01992C4.24146 2.69825 3.8421 2.5 3.5 2.5ZM6.79897 3.60137C6.79892 3.60143 6.79892 3.60143 6.79896 3.60137L6.79897 3.60137Z" fill="#FCD400"/>
</svg>
