<svg width="60" height="14" viewBox="0 0 60 14" fill="none" xmlns="http://www.w3.org/2000/svg">
<path d="M34.2802 1.48866C34.1805 1.19624 34.0498 0.948125 33.7684 0.937048H33.7507H33.5159H33.0639C33.044 0.934833 33.0218 0.932617 32.9997 0.932617H32.7737C32.7516 0.932617 32.7294 0.934833 32.7095 0.937048C32.4747 0.972493 32.3572 1.20732 32.2686 1.48202L28.7905 11.2007C28.7905 11.3292 28.8946 11.4333 29.0231 11.4333H29.7498C30.0378 11.4333 30.1862 11.1962 30.2726 10.9105L30.966 8.88565C31.0147 8.74608 31.1454 8.65304 31.2939 8.65304H35.1619C35.3081 8.65304 35.4388 8.74608 35.4875 8.88343L36.2097 10.9304C36.2983 11.2162 36.4534 11.4532 36.7547 11.4532H37.5146C37.6497 11.4532 37.7583 11.3491 37.7583 11.2206L34.2802 1.48866ZM31.4423 7.50328L33.1969 2.3903L35.0024 7.50328H31.4423Z" fill="#303030"/>
<path d="M44.4482 0.963809C44.3551 0.928364 43.8168 0.932794 43.8168 0.932794C43.4557 0.941656 43.2253 0.932794 43.0636 1.15654C43.0392 1.18977 43.0215 1.22522 43.0038 1.26066L40.8482 5.92393L38.6285 1.26288C38.6108 1.22743 38.593 1.19199 38.5687 1.15876C38.407 0.93501 38.1766 0.941656 37.8155 0.93501C37.8155 0.93501 37.2771 0.930579 37.1841 0.966024C36.9626 1.05021 37.1088 1.32269 37.2129 1.54644L39.9355 6.97842C40.0596 7.22654 40.1238 7.49903 40.1238 7.77594V11.0546C40.1238 11.2762 40.3033 11.4556 40.5248 11.4556H41.0941C41.3157 11.4556 41.4951 11.2762 41.4951 11.0546V7.79145C41.4951 7.51453 41.5594 7.24205 41.6834 6.99393L44.4171 1.54422C44.5235 1.32048 44.6697 1.04799 44.4482 0.963809Z" fill="#303030"/>
<path d="M54.856 6.03685L48.3207 0.56277C48.272 0.522894 48.2011 0.525109 48.1568 0.571631L47.1909 1.57739L52.5276 6.03685L47.1909 10.4963L48.1568 11.5021C48.2011 11.5486 48.272 11.5508 48.3207 11.5109L54.856 6.03685Z" fill="#303030"/>
<path d="M59.5522 6.08104L53.017 0.606959C52.9683 0.567083 52.8974 0.569299 52.8531 0.61582L51.8872 1.62158L57.2239 6.08104L51.8872 10.5405L52.8531 11.5463C52.8974 11.5928 52.9683 11.595 53.017 11.5551L59.5522 6.08104Z" fill="#303030"/>
<path d="M8.44919 0.926025H7.62509C7.45229 0.926025 7.31494 1.06559 7.31494 1.23617V11.1055C7.31494 11.2849 7.46115 11.4333 7.64281 11.4333H8.4359C8.61534 11.4333 8.76377 11.2871 8.76377 11.1055V1.23839C8.76155 1.06559 8.62199 0.926025 8.44919 0.926025Z" fill="#303030"/>
<path d="M5.50066 10.1817H1.821V1.23837C1.821 1.06557 1.68143 0.928223 1.51085 0.928223H0.759853C0.587057 0.928223 0.449707 1.06779 0.449707 1.23837V10.1839V11.0013C0.449707 11.2051 0.613641 11.3691 0.817452 11.3691H1.82321H5.50287C5.6801 11.3691 5.82188 11.2273 5.82188 11.0501V10.5007C5.81967 10.3257 5.67567 10.1817 5.50066 10.1817Z" fill="#303030"/>
<path d="M27.7115 1.50651C27.2529 1.19637 26.6193 0.977051 25.4075 0.977051H23.4957H23.0615C22.7824 0.977051 22.5542 1.20301 22.5542 1.48436V10.9128C22.5542 11.2008 22.7868 11.4356 23.077 11.4356H23.4802C23.7682 11.4356 24.003 11.203 24.003 10.9128V7.37049C24.4372 7.37049 25.9392 7.37049 26.1165 7.37049C26.3225 7.37049 28.9676 6.95622 28.9676 4.0763C28.9654 2.82242 28.3229 1.923 27.7115 1.50651ZM25.6357 6.28498C25.4984 6.28498 24.1625 6.28498 24.1625 6.28498H24.0008V2.06256H25.1661C25.9658 2.06256 26.3845 2.20656 26.688 2.41258C27.0934 2.68729 27.5165 3.28099 27.5165 4.10953C27.5188 6.01249 25.7731 6.28498 25.6357 6.28498Z" fill="#303030"/>
<path d="M21.2139 11.6682C21.1563 11.6261 21.092 11.5951 21.0234 11.5685C20.4784 11.3603 19.6831 10.8087 19.24 10.5229C18.8967 10.3014 18.9498 10.1264 18.9963 10.0533C19.0052 10.0422 19.0163 10.0289 19.0251 10.0178C19.0274 10.0156 19.0274 10.0156 19.0274 10.0156C19.7806 9.09181 20.217 7.77591 20.217 6.11441C20.217 3.17689 18.9609 0.79541 15.5515 0.79541C12.4146 0.79541 10.9082 3.17689 10.9082 6.11441C10.9082 9.05194 11.9206 11.5663 15.5515 11.5663C16.2892 11.5663 16.9671 11.4246 17.563 11.1498H17.5653C17.7403 11.0745 17.9108 11.0767 18.1457 11.2473C19.8293 12.4946 20.6645 12.9531 21.2626 12.9531C21.5506 12.9531 21.4997 12.067 21.4997 12.067C21.4997 12.067 21.4576 11.8432 21.2139 11.6682ZM12.3969 6.13656C12.3969 6.12992 12.3969 6.12327 12.3969 6.11441C12.4013 4.12062 13.128 2.00498 15.556 2.00498C18.3074 2.00498 18.7283 4.12062 18.7305 6.11441C18.7305 6.12106 18.7305 6.1277 18.7305 6.13656C18.7305 8.50918 17.9618 10.3125 15.556 10.3125C12.7934 10.3125 12.3969 8.13701 12.3969 6.13656Z" fill="#303030"/>
</svg>
