<svg width="165" height="60" viewBox="0 0 165 60" fill="none" xmlns="http://www.w3.org/2000/svg">
<path fill-rule="evenodd" clip-rule="evenodd" d="M59.9821 1.51327H162.709V58.5003H59.9821V1.51327ZM58.4824 60V0.0136108H164.208V60H58.4824Z" fill="#303030"/>
<path fill-rule="evenodd" clip-rule="evenodd" d="M1.49966 1.49966H58.4866V58.4867H1.49966V1.49966ZM0 59.9864V0H59.9863V59.9864H0Z" fill="#303030"/>
<path d="M73.4042 22.8689C74.6646 22.8689 75.456 22.1504 75.9449 20.7234L77.7572 15.4224H76.0493L74.8519 19.4323C74.8096 19.2964 74.7475 19.1721 74.6853 19.0677L72.4984 15.4224H70.5088L73.7688 20.3695C73.9039 20.5775 73.9561 20.7756 73.9561 20.953C73.9561 21.2654 73.7373 21.4626 73.3835 21.4626C72.9351 21.4626 72.6434 21.1195 72.6434 20.6198V20.2129H71.0085V20.5883C71.0085 21.9523 72.0186 22.8689 73.4042 22.8689Z" fill="#303030"/>
<path d="M78.0176 22.713H79.6733V19.8591H80.7563L82.7145 22.713H84.7348L82.1626 18.9327L84.5583 15.4224H82.7253L80.7671 18.2763H79.6733V15.4224H78.0176V22.713Z" fill="#303030"/>
<path d="M84.9736 22.713H86.6194V20.1715H87.8798C89.6706 20.1715 90.7644 19.2657 90.7644 17.7973C90.7644 16.3181 89.6706 15.4224 87.8798 15.4224H84.9736V22.713ZM86.6194 18.8489V16.8493H87.9005C88.6397 16.8493 89.098 17.2455 89.098 17.8496C89.098 18.4537 88.6397 18.8489 87.9005 18.8489H86.6194Z" fill="#303030"/>
<path d="M90.4092 22.713H92.1486L92.6905 21.1817H95.7831L96.3251 22.713H98.1059L95.3456 15.4224H93.1695L90.4092 22.713ZM93.138 19.8491L94.2004 16.8601H94.2625L95.3249 19.8491H93.138Z" fill="#303030"/>
<path d="M100.95 12.8708H97.4507L98.2835 14.8289H98.3772L99.2 12.923L100.013 14.8289H100.107L100.95 12.8708ZM98.3672 22.7129H100.034V15.4223H98.3672V22.7129Z" fill="#303030"/>
<path d="M101.136 22.713H102.803V19.8591H105.968V22.713H107.635V15.4224H105.968V18.2763H102.803V15.4224H101.136V22.713Z" fill="#303030"/>
<path d="M111.988 22.8688C113.914 22.8688 115.394 21.557 115.56 19.7339H113.873C113.686 20.6612 112.956 21.2753 111.978 21.2753C110.78 21.2753 109.936 20.3587 109.936 19.0677C109.936 17.7766 110.78 16.8601 111.978 16.8601C112.946 16.8601 113.675 17.4741 113.873 18.4014H115.56C115.404 16.5891 113.925 15.2665 111.988 15.2665C109.801 15.2665 108.228 16.8601 108.228 19.0569C108.228 21.2753 109.811 22.8688 111.988 22.8688Z" fill="#303030"/>
<path d="M116.049 22.713H119.028C120.777 22.713 121.86 21.8065 121.86 20.3381C121.86 18.8597 120.777 17.9639 119.028 17.9639H117.684V15.4224H116.049V22.713ZM117.684 21.2753V19.2865H119.006C119.736 19.2865 120.194 19.6718 120.194 20.2759C120.194 20.88 119.736 21.2753 119.006 21.2753H117.684Z" fill="#303030"/>
<path d="M122.403 22.713H124.059V19.8591H125.142L127.1 22.713H129.12L126.548 18.9327L128.944 15.4224H127.111L125.152 18.2763H124.059V15.4224H122.403V22.713Z" fill="#303030"/>
<path d="M128.516 22.713H130.255L130.797 21.1817H133.889L134.431 22.713H136.212L133.452 15.4224H131.276L128.516 22.713ZM131.244 19.8491L132.306 16.8601H132.369L133.431 19.8491H131.244Z" fill="#303030"/>
<path d="M70.4766 34.1686H72.2159L72.7579 32.6372H75.8505L76.3925 34.1686H78.1733L75.413 26.8788H73.2369L70.4766 34.1686ZM73.2054 31.3047L74.2677 28.3157H74.3299L75.3923 31.3047H73.2054Z" fill="#303030"/>
<path d="M78.4331 34.1686H80.0788V31.6271H81.3385C83.13 31.6271 84.2231 30.7213 84.2231 29.2529C84.2231 27.7737 83.13 26.8788 81.3385 26.8788H78.4331V34.1686ZM80.0788 30.3045V28.3049H81.3592C82.0992 28.3049 82.5574 28.701 82.5574 29.3051C82.5574 29.9092 82.0992 30.3045 81.3592 30.3045H80.0788Z" fill="#303030"/>
<path d="M84.7124 34.1686H86.3374V28.2013L88.2011 34.1686H90.1071L91.9815 28.2013V34.1686H93.6066V26.8788H90.857L89.1798 32.169L87.4934 26.8788H84.7124V34.1686Z" fill="#303030"/>
<path d="M96.3784 26.8788H94.7119V34.1686H96.3784V26.8788Z" fill="#303030"/>
<path d="M96.5952 34.1686H98.4705L100.272 31.5856H101.501V34.1686H103.146V26.8788H100.022C98.231 26.8788 97.1264 27.7638 97.1264 29.2214C97.1264 30.2423 97.6576 30.9815 98.5741 31.3354L96.5952 34.1686ZM99.9696 30.2523C99.2511 30.2523 98.7929 29.8669 98.7929 29.2943C98.7929 28.7109 99.2511 28.3364 99.9696 28.3364H101.501V30.2523H99.9696Z" fill="#303030"/>
<path d="M70.4976 47.1449H72.0903V45.6243H76.9538V47.1449H78.5473V44.0514H77.5479V38.3344H71.6743V39.9793C71.6743 41.8024 71.5806 42.8954 71.3412 44.0514H70.4976V47.1449ZM72.9446 44.1037C73.1949 42.9477 73.2985 41.8438 73.3093 40.1881V39.8235H75.913V44.1037H72.9446Z" fill="#303030"/>
<path d="M82.3082 45.7801C84.495 45.7801 86.13 44.1559 86.13 41.9789C86.13 39.8028 84.495 38.1778 82.3082 38.1778C80.1213 38.1778 78.4863 39.8028 78.4863 41.9789C78.4863 44.1559 80.1213 45.7801 82.3082 45.7801ZM82.3082 44.1873C81.09 44.1873 80.1834 43.2394 80.1834 41.9789C80.1834 40.7194 81.09 39.7713 82.3082 39.7713C83.5263 39.7713 84.4329 40.7194 84.4329 41.9789C84.4329 43.2394 83.5263 44.1873 82.3082 44.1873Z" fill="#303030"/>
<path d="M86.7231 45.6243H88.3888V39.9172H91.5552V45.6243H93.2216V38.3344H86.7231V45.6243Z" fill="#303030"/>
<path d="M97.6363 45.7801C99.8232 45.7801 101.458 44.1559 101.458 41.9789C101.458 39.8028 99.8232 38.1778 97.6363 38.1778C95.4494 38.1778 93.8145 39.8028 93.8145 41.9789C93.8145 44.1559 95.4494 45.7801 97.6363 45.7801ZM97.6363 44.1873C96.4181 44.1873 95.5116 43.2394 95.5116 41.9789C95.5116 40.7194 96.4181 39.7713 97.6363 39.7713C98.8553 39.7713 99.761 40.7194 99.761 41.9789C99.761 43.2394 98.8553 44.1873 97.6363 44.1873Z" fill="#303030"/>
<path d="M102.053 45.6243H103.677V39.657L105.542 45.6243H107.448L109.322 39.657V45.6243H110.947V38.3344H108.198L106.521 43.6247L104.833 38.3344H102.053V45.6243Z" fill="#303030"/>
<path d="M111.208 45.6243H112.947L113.489 44.0929H116.581L117.123 45.6243H118.904L116.144 38.3344H113.967L111.208 45.6243ZM113.936 42.7604L114.998 39.7713H115.061L116.123 42.7604H113.936Z" fill="#303030"/>
<path d="M119.163 45.6243H120.83V39.9172H124.412V38.3344H119.163V45.6243Z" fill="#303030"/>
<path d="M123.881 45.6243H125.621L126.162 44.0929H129.255L129.796 45.6243H131.577L128.818 38.3344H126.641L123.881 45.6243ZM126.61 42.7604L127.673 39.7713H127.735L128.797 42.7604H126.61Z" fill="#303030"/>
<path d="M135.066 45.7801C137.024 45.7801 138.492 44.489 138.659 42.6767H137.003C136.805 43.6346 136.055 44.2702 135.035 44.2702C134.025 44.2702 133.223 43.6247 133.025 42.646H135.524V41.3127H133.025C133.223 40.334 134.025 39.6876 135.035 39.6876C136.055 39.6876 136.805 40.3233 137.003 41.2812H138.67C138.492 39.4697 137.024 38.1778 135.066 38.1778C132.921 38.1778 131.328 39.7821 131.328 41.9789C131.328 44.1658 132.921 45.7801 135.066 45.7801Z" fill="#303030"/>
<path fill-rule="evenodd" clip-rule="evenodd" d="M25.2088 45.7509L14.7168 45.5933L22.5176 41.0895L25.2088 45.7509Z" fill="#303030"/>
<path fill-rule="evenodd" clip-rule="evenodd" d="M25.8777 45.3351L32.9282 21.5855L41.4495 36.3447L25.8777 45.3351Z" fill="#303030"/>
<path fill-rule="evenodd" clip-rule="evenodd" d="M25.9312 45.3348L32.1153 20.0503L7.99219 14.2636L25.9312 45.3348Z" fill="#303030"/>
<path fill-rule="evenodd" clip-rule="evenodd" d="M36.833 26.6065L42.2153 35.9289L46.1533 21.2255L36.833 26.6065Z" fill="#303030"/>
<path fill-rule="evenodd" clip-rule="evenodd" d="M46.2201 21.2042L52.0012 24.0713L45.4351 26.9924L46.2201 21.2042Z" fill="#303030"/>
</svg>
