<svg width="624" height="228" viewBox="0 0 624 228" fill="none" xmlns="http://www.w3.org/2000/svg">
<path fill-rule="evenodd" clip-rule="evenodd" d="M227.699 5.69871H618.065V222.25H227.699V5.69871ZM222 227.948V0H623.764V227.948H222Z" fill="#303030"/>
<path d="M290.16 75.8C293.6 75.8 296.307 76.6133 298.28 78.24C300.253 79.8667 301.24 82.0933 301.24 84.92C301.24 87.7467 300.253 89.9733 298.28 91.6C296.307 93.2267 293.6 94.04 290.16 94.04H285.32V103.8H279V75.8H290.16ZM290.24 88.96C291.653 88.96 292.773 88.6133 293.6 87.92C294.427 87.2267 294.84 86.2933 294.84 85.12C294.84 83.9467 294.427 83.0133 293.6 82.32C292.773 81.6267 291.653 81.28 290.24 81.28H285.32V88.96H290.24Z" fill="#303030"/>
<path d="M317.986 75.8C321.399 75.8 324.092 76.6133 326.066 78.24C328.066 79.84 329.066 82.0533 329.066 84.88C329.066 86.8267 328.559 88.5067 327.546 89.92C326.559 91.3067 325.159 92.3467 323.346 93.04L330.866 103.8H323.506L316.586 93.92H312.586V103.8H306.266V75.8H317.986ZM318.146 88.76C319.532 88.76 320.626 88.4267 321.426 87.76C322.252 87.0667 322.666 86.16 322.666 85.04C322.666 83.92 322.252 83.0267 321.426 82.36C320.626 81.6933 319.532 81.36 318.146 81.36H312.586V88.76H318.146Z" fill="#303030"/>
<path d="M347.775 104.4C345.001 104.4 342.495 103.773 340.255 102.52C338.041 101.24 336.295 99.4933 335.015 97.28C333.735 95.04 333.095 92.5467 333.095 89.8C333.095 87.0533 333.735 84.5733 335.015 82.36C336.295 80.12 338.041 78.3733 340.255 77.12C342.495 75.84 345.001 75.2 347.775 75.2C350.548 75.2 353.041 75.84 355.255 77.12C357.495 78.3733 359.255 80.12 360.535 82.36C361.815 84.5733 362.455 87.0533 362.455 89.8C362.455 92.5467 361.815 95.04 360.535 97.28C359.255 99.4933 357.495 101.24 355.255 102.52C353.041 103.773 350.548 104.4 347.775 104.4ZM347.775 98.28C349.321 98.28 350.708 97.92 351.935 97.2C353.188 96.4533 354.161 95.44 354.855 94.16C355.575 92.8533 355.935 91.4 355.935 89.8C355.935 88.2 355.575 86.76 354.855 85.48C354.161 84.1733 353.188 83.16 351.935 82.44C350.708 81.6933 349.321 81.32 347.775 81.32C346.228 81.32 344.828 81.6933 343.575 82.44C342.348 83.16 341.375 84.1733 340.655 85.48C339.961 86.76 339.615 88.2 339.615 89.8C339.615 91.4 339.961 92.8533 340.655 94.16C341.375 95.44 342.348 96.4533 343.575 97.2C344.828 97.92 346.228 98.28 347.775 98.28Z" fill="#303030"/>
<path d="M374.404 81.92H364.324V75.8H390.844V81.92H380.804V103.8H374.404V81.92Z" fill="#303030"/>
<path d="M395.836 75.8H415.156V81.4H402.116V87.12H410.996V92.48H402.116V98.2H416.316V103.8H395.836V75.8ZM405.716 66H411.156L408.476 72.4H403.076L405.716 66Z" fill="#303030"/>
<path d="M432.677 104.4C430.064 104.4 427.704 103.773 425.597 102.52C423.49 101.267 421.837 99.5333 420.637 97.32C419.437 95.1067 418.837 92.6133 418.837 89.84C418.837 87.04 419.45 84.5333 420.677 82.32C421.93 80.08 423.65 78.3333 425.837 77.08C428.05 75.8267 430.53 75.2 433.277 75.2C435.624 75.2 437.757 75.6533 439.677 76.56C441.597 77.4667 443.17 78.7467 444.397 80.4C445.65 82.0267 446.464 83.8933 446.837 86H440.197C439.744 84.48 438.917 83.2933 437.717 82.44C436.517 81.56 435.077 81.12 433.397 81.12C431.824 81.12 430.424 81.4933 429.197 82.24C427.997 82.9867 427.05 84.04 426.357 85.4C425.69 86.7333 425.357 88.2533 425.357 89.96C425.357 91.6933 425.704 93.2533 426.397 94.64C427.09 96 428.064 97.0667 429.317 97.84C430.57 98.5867 431.997 98.96 433.597 98.96C435.33 98.96 436.85 98.4933 438.157 97.56C439.464 96.6267 440.37 95.3867 440.877 93.84H433.477V88.8H447.037V103.8H441.677V100.68C440.61 101.88 439.317 102.8 437.797 103.44C436.277 104.08 434.57 104.4 432.677 104.4Z" fill="#303030"/>
<path d="M453.609 75.8H472.929V81.4H459.889V87.12H468.769V92.48H459.889V98.2H474.089V103.8H453.609V75.8Z" fill="#303030"/>
<path d="M491.29 104.4C488.517 104.4 486.01 103.773 483.77 102.52C481.557 101.24 479.81 99.4933 478.53 97.28C477.25 95.04 476.61 92.5467 476.61 89.8C476.61 87.0533 477.25 84.5733 478.53 82.36C479.81 80.12 481.557 78.3733 483.77 77.12C486.01 75.84 488.517 75.2 491.29 75.2C494.064 75.2 496.557 75.84 498.77 77.12C501.01 78.3733 502.77 80.12 504.05 82.36C505.33 84.5733 505.97 87.0533 505.97 89.8C505.97 92.5467 505.33 95.04 504.05 97.28C502.77 99.4933 501.01 101.24 498.77 102.52C496.557 103.773 494.064 104.4 491.29 104.4ZM491.29 98.28C492.837 98.28 494.224 97.92 495.45 97.2C496.704 96.4533 497.677 95.44 498.37 94.16C499.09 92.8533 499.45 91.4 499.45 89.8C499.45 88.2 499.09 86.76 498.37 85.48C497.677 84.1733 496.704 83.16 495.45 82.44C494.224 81.6933 492.837 81.32 491.29 81.32C489.744 81.32 488.344 81.6933 487.09 82.44C485.864 83.16 484.89 84.1733 484.17 85.48C483.477 86.76 483.13 88.2 483.13 89.8C483.13 91.4 483.477 92.8533 484.17 94.16C484.89 95.44 485.864 96.4533 487.09 97.2C488.344 97.92 489.744 98.28 491.29 98.28Z" fill="#303030"/>
<path d="M511.539 75.8H518.259L531.339 94.6V75.8H537.299V103.8H530.579L517.579 84.96V103.8H511.539V75.8Z" fill="#303030"/>
<path d="M555.653 104.4C551.973 104.4 548.919 103.533 546.493 101.8C544.093 100.04 542.746 97.48 542.453 94.12H548.813C549.106 95.6933 549.853 96.92 551.053 97.8C552.253 98.6533 553.786 99.08 555.653 99.08C557.333 99.08 558.666 98.84 559.653 98.36C560.666 97.8533 561.173 97.12 561.173 96.16C561.173 95.4133 560.933 94.84 560.453 94.44C559.999 94.0133 559.346 93.68 558.493 93.44C557.666 93.1733 556.346 92.8533 554.533 92.48C552.213 92 550.266 91.48 548.693 90.92C547.146 90.3333 545.826 89.4533 544.733 88.28C543.666 87.1067 543.133 85.56 543.133 83.64C543.133 81.7467 543.679 80.1733 544.773 78.92C545.893 77.64 547.346 76.7067 549.133 76.12C550.946 75.5067 552.906 75.2 555.013 75.2C557.199 75.2 559.213 75.56 561.053 76.28C562.919 76.9733 564.466 78.0667 565.693 79.56C566.919 81.0533 567.653 82.9333 567.893 85.2H561.213C560.946 83.7067 560.239 82.5733 559.093 81.8C557.946 81 556.519 80.6 554.813 80.6C553.453 80.6 552.266 80.8533 551.253 81.36C550.266 81.84 549.773 82.5733 549.773 83.56C549.773 84.28 550.039 84.8667 550.573 85.32C551.106 85.7467 551.786 86.08 552.613 86.32C553.439 86.5333 554.746 86.8267 556.533 87.2C558.879 87.7067 560.839 88.2667 562.413 88.88C564.013 89.4933 565.319 90.3733 566.333 91.52C567.346 92.6667 567.853 94.1733 567.853 96.04C567.853 97.7467 567.373 99.2267 566.413 100.48C565.453 101.733 564.053 102.707 562.213 103.4C560.399 104.067 558.213 104.4 555.653 104.4Z" fill="#303030"/>
<path d="M279 123.8H298.32V129.4H285.28V135.12H294.16V140.48H285.28V146.2H299.48V151.8H279V123.8Z" fill="#303030"/>
<path d="M305.328 123.8H312.048L325.128 142.6V123.8H331.088V151.8H324.368L311.368 132.96V151.8H305.328V123.8Z" fill="#303030"/>
<path d="M349.442 152.4C345.762 152.4 342.709 151.533 340.282 149.8C337.882 148.04 336.535 145.48 336.242 142.12H342.602C342.895 143.693 343.642 144.92 344.842 145.8C346.042 146.653 347.575 147.08 349.442 147.08C351.122 147.08 352.455 146.84 353.442 146.36C354.455 145.853 354.962 145.12 354.962 144.16C354.962 143.413 354.722 142.84 354.242 142.44C353.789 142.013 353.135 141.68 352.282 141.44C351.455 141.173 350.135 140.853 348.322 140.48C346.002 140 344.055 139.48 342.482 138.92C340.935 138.333 339.615 137.453 338.522 136.28C337.455 135.107 336.922 133.56 336.922 131.64C336.922 129.747 337.469 128.173 338.562 126.92C339.682 125.64 341.135 124.707 342.922 124.12C344.735 123.507 346.695 123.2 348.802 123.2C350.989 123.2 353.002 123.56 354.842 124.28C356.709 124.973 358.255 126.067 359.482 127.56C360.709 129.053 361.442 130.933 361.682 133.2H355.002C354.735 131.707 354.029 130.573 352.882 129.8C351.735 129 350.309 128.6 348.602 128.6C347.242 128.6 346.055 128.853 345.042 129.36C344.055 129.84 343.562 130.573 343.562 131.56C343.562 132.28 343.829 132.867 344.362 133.32C344.895 133.747 345.575 134.08 346.402 134.32C347.229 134.533 348.535 134.827 350.322 135.2C352.669 135.707 354.629 136.267 356.202 136.88C357.802 137.493 359.109 138.373 360.122 139.52C361.135 140.667 361.642 142.173 361.642 144.04C361.642 145.747 361.162 147.227 360.202 148.48C359.242 149.733 357.842 150.707 356.002 151.4C354.189 152.067 352.002 152.4 349.442 152.4Z" fill="#303030"/>
<path d="M367.164 123.8H386.484V129.4H373.444V135.12H382.324V140.48H373.444V146.2H387.644V151.8H367.164V123.8Z" fill="#303030"/>
<path d="M393.492 123.8H404.172L410.652 144.12L417.092 123.8H427.652V151.8H421.412V128.88L414.212 151.8H406.892L399.732 128.88V151.8H393.492V123.8Z" fill="#303030"/>
<path d="M448.644 123.8C451.658 123.8 454.031 124.48 455.764 125.84C457.498 127.2 458.364 129.053 458.364 131.4C458.364 133.96 457.351 135.907 455.324 137.24V137.52C456.578 138.187 457.538 139.08 458.204 140.2C458.898 141.293 459.244 142.547 459.244 143.96C459.244 145.507 458.844 146.88 458.044 148.08C457.244 149.253 456.111 150.173 454.644 150.84C453.178 151.48 451.484 151.8 449.564 151.8H435.484V123.8H448.644ZM448.404 135.12C449.524 135.12 450.404 134.853 451.044 134.32C451.711 133.76 452.044 133.027 452.044 132.12C452.044 131.213 451.711 130.493 451.044 129.96C450.404 129.4 449.524 129.12 448.404 129.12H441.684V135.12H448.404ZM449.124 146.48C450.271 146.48 451.178 146.2 451.844 145.64C452.511 145.08 452.844 144.333 452.844 143.4C452.844 142.467 452.498 141.72 451.804 141.16C451.138 140.6 450.244 140.32 449.124 140.32H441.684V146.48H449.124Z" fill="#303030"/>
<path d="M464.938 123.8H471.338V145.68H485.258V151.8H464.938V123.8Z" fill="#303030"/>
<path d="M490.484 123.8H509.804V129.4H496.764V135.12H505.644V140.48H496.764V146.2H510.964V151.8H490.484V123.8Z" fill="#303030"/>
<path fill-rule="evenodd" clip-rule="evenodd" d="M5.69878 5.69871H222.252V222.25H5.69878V5.69871ZM0 227.948V0H227.951V227.948H0Z" fill="#303030"/>
<path fill-rule="evenodd" clip-rule="evenodd" d="M98.573 172.138L98.5402 172.272L98.4904 172.186L98.3376 172.274L98.4068 172.041L30.3708 54.2012L122.04 76.1909L99.4851 168.408L125.13 82.0252L157.511 138.11L98.573 172.138ZM95.7955 173.854L55.9238 173.255L85.5679 156.142L95.7955 173.854ZM139.968 101.104L160.423 136.529L175.386 80.6581L139.968 101.104ZM197.609 91.4716L175.639 80.5764L172.656 102.571L197.609 91.4716Z" fill="#303030"/>
</svg>
