<svg width="624" height="228" viewBox="0 0 624 228" fill="none" xmlns="http://www.w3.org/2000/svg">
<path fill-rule="evenodd" clip-rule="evenodd" d="M227.699 5.69871H618.065V222.25H227.699V5.69871ZM222 227.948V0H623.764V227.948H222Z" fill="#303030"/>
<path d="M320 75.6C323.44 75.6 326.147 76.4133 328.12 78.04C330.093 79.6667 331.08 81.8933 331.08 84.72C331.08 87.5467 330.093 89.7733 328.12 91.4C326.147 93.0267 323.44 93.84 320 93.84H315.16V103.6H308.84V75.6H320ZM320.08 88.76C321.493 88.76 322.613 88.4133 323.44 87.72C324.267 87.0267 324.68 86.0933 324.68 84.92C324.68 83.7467 324.267 82.8133 323.44 82.12C322.613 81.4267 321.493 81.08 320.08 81.08H315.16V88.76H320.08Z" fill="#303030"/>
<path d="M347.826 75.6C351.239 75.6 353.932 76.4133 355.906 78.04C357.906 79.64 358.906 81.8533 358.906 84.68C358.906 86.6267 358.399 88.3067 357.386 89.72C356.399 91.1067 354.999 92.1467 353.186 92.84L360.706 103.6H353.346L346.426 93.72H342.426V103.6H336.106V75.6H347.826ZM347.986 88.56C349.372 88.56 350.466 88.2267 351.266 87.56C352.092 86.8667 352.506 85.96 352.506 84.84C352.506 83.72 352.092 82.8267 351.266 82.16C350.466 81.4933 349.372 81.16 347.986 81.16H342.426V88.56H347.986Z" fill="#303030"/>
<path d="M377.615 104.2C374.841 104.2 372.335 103.573 370.095 102.32C367.881 101.04 366.135 99.2933 364.855 97.08C363.575 94.84 362.935 92.3467 362.935 89.6C362.935 86.8533 363.575 84.3733 364.855 82.16C366.135 79.92 367.881 78.1733 370.095 76.92C372.335 75.64 374.841 75 377.615 75C380.388 75 382.881 75.64 385.095 76.92C387.335 78.1733 389.095 79.92 390.375 82.16C391.655 84.3733 392.295 86.8533 392.295 89.6C392.295 92.3467 391.655 94.84 390.375 97.08C389.095 99.2933 387.335 101.04 385.095 102.32C382.881 103.573 380.388 104.2 377.615 104.2ZM377.615 98.08C379.161 98.08 380.548 97.72 381.775 97C383.028 96.2533 384.001 95.24 384.695 93.96C385.415 92.6533 385.775 91.2 385.775 89.6C385.775 88 385.415 86.56 384.695 85.28C384.001 83.9733 383.028 82.96 381.775 82.24C380.548 81.4933 379.161 81.12 377.615 81.12C376.068 81.12 374.668 81.4933 373.415 82.24C372.188 82.96 371.215 83.9733 370.495 85.28C369.801 86.56 369.455 88 369.455 89.6C369.455 91.2 369.801 92.6533 370.495 93.96C371.215 95.24 372.188 96.2533 373.415 97C374.668 97.72 376.068 98.08 377.615 98.08Z" fill="#303030"/>
<path d="M404.244 81.72H394.164V75.6H420.684V81.72H410.644V103.6H404.244V81.72Z" fill="#303030"/>
<path d="M425.676 75.6H444.996V81.2H431.956V86.92H440.836V92.28H431.956V98H446.156V103.6H425.676V75.6Z" fill="#303030"/>
<path d="M463.117 104.2C460.37 104.2 457.89 103.573 455.677 102.32C453.49 101.067 451.77 99.3333 450.517 97.12C449.29 94.88 448.677 92.36 448.677 89.56C448.677 86.7867 449.29 84.2933 450.517 82.08C451.77 79.8667 453.49 78.1333 455.677 76.88C457.864 75.6267 460.344 75 463.117 75C465.57 75 467.797 75.52 469.797 76.56C471.824 77.6 473.45 79.04 474.677 80.88C475.93 82.6933 476.65 84.7467 476.837 87.04H470.357C469.984 85.2533 469.13 83.8267 467.797 82.76C466.49 81.6667 464.917 81.12 463.077 81.12C461.557 81.12 460.197 81.48 458.997 82.2C457.824 82.92 456.904 83.9333 456.237 85.24C455.57 86.52 455.237 87.9733 455.237 89.6C455.237 91.2267 455.57 92.6933 456.237 94C456.904 95.28 457.824 96.28 458.997 97C460.197 97.72 461.557 98.08 463.077 98.08C464.944 98.08 466.53 97.5467 467.837 96.48C469.144 95.3867 469.984 93.9467 470.357 92.16H476.837C476.624 94.48 475.89 96.56 474.637 98.4C473.41 100.213 471.784 101.64 469.757 102.68C467.757 103.693 465.544 104.2 463.117 104.2Z" fill="#303030"/>
<path d="M488.893 81.72H478.812V75.6H505.333V81.72H495.292V103.6H488.893V81.72Z" fill="#303030"/>
<path d="M316.08 129.72H306V123.6H332.52V129.72H322.48V151.6H316.08V129.72Z" fill="#303030"/>
<path d="M349.294 152.2C346.521 152.2 344.014 151.573 341.774 150.32C339.561 149.04 337.814 147.293 336.534 145.08C335.254 142.84 334.614 140.347 334.614 137.6C334.614 134.853 335.254 132.373 336.534 130.16C337.814 127.92 339.561 126.173 341.774 124.92C344.014 123.64 346.521 123 349.294 123C352.068 123 354.561 123.64 356.774 124.92C359.014 126.173 360.774 127.92 362.054 130.16C363.334 132.373 363.974 134.853 363.974 137.6C363.974 140.347 363.334 142.84 362.054 145.08C360.774 147.293 359.014 149.04 356.774 150.32C354.561 151.573 352.068 152.2 349.294 152.2ZM349.294 146.08C350.841 146.08 352.228 145.72 353.454 145C354.708 144.253 355.681 143.24 356.374 141.96C357.094 140.653 357.454 139.2 357.454 137.6C357.454 136 357.094 134.56 356.374 133.28C355.681 131.973 354.708 130.96 353.454 130.24C352.228 129.493 350.841 129.12 349.294 129.12C347.748 129.12 346.348 129.493 345.094 130.24C343.868 130.96 342.894 131.973 342.174 133.28C341.481 134.56 341.134 136 341.134 137.6C341.134 139.2 341.481 140.653 342.174 141.96C342.894 143.24 343.868 144.253 345.094 145C346.348 145.72 347.748 146.08 349.294 146.08Z" fill="#303030"/>
<path d="M381.736 152.2C379.122 152.2 376.762 151.573 374.656 150.32C372.549 149.067 370.896 147.333 369.696 145.12C368.496 142.907 367.896 140.413 367.896 137.64C367.896 134.84 368.509 132.333 369.736 130.12C370.989 127.88 372.709 126.133 374.896 124.88C377.109 123.627 379.589 123 382.336 123C384.682 123 386.816 123.453 388.736 124.36C390.656 125.267 392.229 126.547 393.456 128.2C394.709 129.827 395.522 131.693 395.896 133.8H389.256C388.802 132.28 387.976 131.093 386.776 130.24C385.576 129.36 384.136 128.92 382.456 128.92C380.882 128.92 379.482 129.293 378.256 130.04C377.056 130.787 376.109 131.84 375.416 133.2C374.749 134.533 374.416 136.053 374.416 137.76C374.416 139.493 374.762 141.053 375.456 142.44C376.149 143.8 377.122 144.867 378.376 145.64C379.629 146.387 381.056 146.76 382.656 146.76C384.389 146.76 385.909 146.293 387.216 145.36C388.522 144.427 389.429 143.187 389.936 141.64H382.536V136.6H396.096V151.6H390.736V148.48C389.669 149.68 388.376 150.6 386.856 151.24C385.336 151.88 383.629 152.2 381.736 152.2Z" fill="#303030"/>
<path d="M402.668 123.6H421.988V129.2H408.948V134.92H417.828V140.28H408.948V146H423.148V151.6H402.668V123.6Z" fill="#303030"/>
<path d="M435.377 129.72H425.297V123.6H451.817V129.72H441.777V151.6H435.377V129.72Z" fill="#303030"/>
<path d="M456.809 123.6H463.209V134.56H475.369V123.6H481.769V151.6H475.369V140.64H463.209V151.6H456.809V123.6Z" fill="#303030"/>
<path d="M489.621 123.6H508.941V129.2H495.901V134.92H504.781V140.28H495.901V146H510.101V151.6H489.621V123.6Z" fill="#303030"/>
<path d="M527.669 123.6C531.083 123.6 533.776 124.413 535.749 126.04C537.749 127.64 538.749 129.853 538.749 132.68C538.749 134.627 538.243 136.307 537.229 137.72C536.243 139.107 534.843 140.147 533.029 140.84L540.549 151.6H533.189L526.269 141.72H522.269V151.6H515.949V123.6H527.669ZM527.829 136.56C529.216 136.56 530.309 136.227 531.109 135.56C531.936 134.867 532.349 133.96 532.349 132.84C532.349 131.72 531.936 130.827 531.109 130.16C530.309 129.493 529.216 129.16 527.829 129.16H522.269V136.56H527.829Z" fill="#303030"/>
<path fill-rule="evenodd" clip-rule="evenodd" d="M98.573 172.138L98.5402 172.272L98.4904 172.186L98.3376 172.274L98.4068 172.041L30.3708 54.2012L122.04 76.1909L99.4851 168.408L125.13 82.0252L157.511 138.11L98.573 172.138ZM95.7955 173.854L55.9238 173.255L85.5679 156.142L95.7955 173.854ZM139.968 101.104L160.423 136.529L175.386 80.6581L139.968 101.104ZM197.609 91.4716L175.639 80.5764L172.656 102.571L197.609 91.4716Z" fill="#303030"/>
<path fill-rule="evenodd" clip-rule="evenodd" d="M5.69878 5.69871H222.252V222.25H5.69878V5.69871ZM0 227.948V0H227.951V227.948H0Z" fill="#303030"/>
</svg>
