<svg width="624" height="228" viewBox="0 0 624 228" fill="none" xmlns="http://www.w3.org/2000/svg">
<path d="M293.72 104.2C291.293 104.2 289.067 103.773 287.04 102.92C285.04 102.04 283.4 100.733 282.12 99C280.867 97.24 280.16 95.12 280 92.64H286.24C286.48 94.5333 287.227 96.0267 288.48 97.12C289.76 98.1867 291.453 98.72 293.56 98.72C295.32 98.72 296.72 98.4 297.76 97.76C298.827 97.12 299.36 96.24 299.36 95.12C299.36 94.16 298.96 93.4133 298.16 92.88C297.387 92.32 296.293 92.04 294.88 92.04H291.28V87.08H294.88C296.027 87.08 296.947 86.8133 297.64 86.28C298.333 85.72 298.68 84.9867 298.68 84.08C298.68 83.0133 298.187 82.16 297.2 81.52C296.213 80.88 294.92 80.56 293.32 80.56C291.507 80.56 290 81.0133 288.8 81.92C287.6 82.8 286.867 84.0267 286.6 85.6H280.36C280.68 83.2533 281.467 81.2933 282.72 79.72C283.973 78.12 285.533 76.9333 287.4 76.16C289.293 75.3867 291.347 75 293.56 75C295.667 75 297.6 75.3467 299.36 76.04C301.12 76.7067 302.507 77.68 303.52 78.96C304.56 80.2133 305.08 81.6933 305.08 83.4C305.08 84.68 304.787 85.8267 304.2 86.84C303.613 87.8267 302.787 88.64 301.72 89.28C303 89.92 304 90.7867 304.72 91.88C305.44 92.9467 305.8 94.1867 305.8 95.6C305.8 97.3333 305.267 98.8533 304.2 100.16C303.16 101.467 301.72 102.467 299.88 103.16C298.067 103.853 296.013 104.2 293.72 104.2Z" fill="#303030"/>
<path d="M318.085 75.6H326.445L337.045 103.6H330.205L328.125 97.72H316.245L314.165 103.6H307.485L318.085 75.6ZM326.365 92.6L322.285 81.12H322.045L317.965 92.6H326.365Z" fill="#303030"/>
<path d="M347.21 89.28L337.61 75.6H345.13L351.73 85L358.33 75.6H365.65L355.97 89.2L366.09 103.6H358.49L351.57 93.72L344.53 103.6H337.21L347.21 89.28Z" fill="#303030"/>
<path d="M370.569 75.6H376.889V94.08L389.609 75.6H396.329V103.6H390.009V85.04L377.249 103.6H370.569V75.6Z" fill="#303030"/>
<path d="M416.33 104.2C413.583 104.2 411.103 103.573 408.89 102.32C406.703 101.067 404.983 99.3333 403.73 97.12C402.503 94.88 401.89 92.36 401.89 89.56C401.89 86.7867 402.503 84.2933 403.73 82.08C404.983 79.8667 406.703 78.1333 408.89 76.88C411.077 75.6267 413.557 75 416.33 75C418.783 75 421.01 75.52 423.01 76.56C425.037 77.6 426.663 79.04 427.89 80.88C429.143 82.6933 429.863 84.7467 430.05 87.04H423.57C423.197 85.2533 422.343 83.8267 421.01 82.76C419.703 81.6667 418.13 81.12 416.29 81.12C414.77 81.12 413.41 81.48 412.21 82.2C411.037 82.92 410.117 83.9333 409.45 85.24C408.783 86.52 408.45 87.9733 408.45 89.6C408.45 91.2267 408.783 92.6933 409.45 94C410.117 95.28 411.037 96.28 412.21 97C413.41 97.72 414.77 98.08 416.29 98.08C418.157 98.08 419.743 97.5467 421.05 96.48C422.357 95.3867 423.197 93.9467 423.57 92.16H430.05C429.837 94.48 429.103 96.56 427.85 98.4C426.623 100.213 424.997 101.64 422.97 102.68C420.97 103.693 418.757 104.2 416.33 104.2Z" fill="#303030"/>
<path d="M442.106 81.72H432.026V75.6H458.546V81.72H448.506V103.6H442.106V81.72Z" fill="#303030"/>
<path d="M463.537 75.6H469.857V94.08L482.577 75.6H489.298V103.6H482.977V85.04L470.217 103.6H463.537V75.6Z" fill="#303030"/>
<path d="M497.131 75.6H507.811L514.291 95.92L520.731 75.6H531.291V103.6H525.051V80.68L517.851 103.6H510.531L503.371 80.68V103.6H497.131V75.6Z" fill="#303030"/>
<path d="M551.531 104.2C548.758 104.2 546.251 103.573 544.011 102.32C541.798 101.04 540.051 99.2933 538.771 97.08C537.491 94.84 536.851 92.3467 536.851 89.6C536.851 86.8533 537.491 84.3733 538.771 82.16C540.051 79.92 541.798 78.1733 544.011 76.92C546.251 75.64 548.758 75 551.531 75C554.304 75 556.798 75.64 559.011 76.92C561.251 78.1733 563.011 79.92 564.291 82.16C565.571 84.3733 566.211 86.8533 566.211 89.6C566.211 92.3467 565.571 94.84 564.291 97.08C563.011 99.2933 561.251 101.04 559.011 102.32C556.798 103.573 554.304 104.2 551.531 104.2ZM551.531 98.08C553.078 98.08 554.464 97.72 555.691 97C556.944 96.2533 557.918 95.24 558.611 93.96C559.331 92.6533 559.691 91.2 559.691 89.6C559.691 88 559.331 86.56 558.611 85.28C557.918 83.9733 556.944 82.96 555.691 82.24C554.464 81.4933 553.078 81.12 551.531 81.12C549.984 81.12 548.584 81.4933 547.331 82.24C546.104 82.96 545.131 83.9733 544.411 85.28C543.718 86.56 543.371 88 543.371 89.6C543.371 91.2 543.718 92.6533 544.411 93.96C545.131 95.24 546.104 96.2533 547.331 97C548.584 97.72 549.984 98.08 551.531 98.08Z" fill="#303030"/>
<path d="M293.76 123.6C297.2 123.6 299.907 124.413 301.88 126.04C303.853 127.667 304.84 129.893 304.84 132.72C304.84 135.547 303.853 137.773 301.88 139.4C299.907 141.027 297.2 141.84 293.76 141.84H288.92V151.6H282.6V123.6H293.76ZM293.84 136.76C295.253 136.76 296.373 136.413 297.2 135.72C298.027 135.027 298.44 134.093 298.44 132.92C298.44 131.747 298.027 130.813 297.2 130.12C296.373 129.427 295.253 129.08 293.84 129.08H288.92V136.76H293.84Z" fill="#303030"/>
<path d="M315.546 123.6H323.906L334.506 151.6H327.666L325.586 145.72H313.706L311.626 151.6H304.946L315.546 123.6ZM323.826 140.6L319.746 129.12H319.506L315.426 140.6H323.826Z" fill="#303030"/>
<path d="M349.111 152.2C346.684 152.2 344.457 151.773 342.431 150.92C340.431 150.04 338.791 148.733 337.511 147C336.257 145.24 335.551 143.12 335.391 140.64H341.631C341.871 142.533 342.617 144.027 343.871 145.12C345.151 146.187 346.844 146.72 348.951 146.72C350.711 146.72 352.111 146.4 353.151 145.76C354.217 145.12 354.751 144.24 354.751 143.12C354.751 142.16 354.351 141.413 353.551 140.88C352.777 140.32 351.684 140.04 350.271 140.04H346.671V135.08H350.271C351.417 135.08 352.337 134.813 353.031 134.28C353.724 133.72 354.071 132.987 354.071 132.08C354.071 131.013 353.577 130.16 352.591 129.52C351.604 128.88 350.311 128.56 348.711 128.56C346.897 128.56 345.391 129.013 344.191 129.92C342.991 130.8 342.257 132.027 341.991 133.6H335.751C336.071 131.253 336.857 129.293 338.111 127.72C339.364 126.12 340.924 124.933 342.791 124.16C344.684 123.387 346.737 123 348.951 123C351.057 123 352.991 123.347 354.751 124.04C356.511 124.707 357.897 125.68 358.911 126.96C359.951 128.213 360.471 129.693 360.471 131.4C360.471 132.68 360.177 133.827 359.591 134.84C359.004 135.827 358.177 136.64 357.111 137.28C358.391 137.92 359.391 138.787 360.111 139.88C360.831 140.947 361.191 142.187 361.191 143.6C361.191 145.333 360.657 146.853 359.591 148.16C358.551 149.467 357.111 150.467 355.271 151.16C353.457 151.853 351.404 152.2 349.111 152.2Z" fill="#303030"/>
<path d="M379.109 152.2C376.336 152.2 373.829 151.573 371.589 150.32C369.376 149.04 367.629 147.293 366.349 145.08C365.069 142.84 364.429 140.347 364.429 137.6C364.429 134.853 365.069 132.373 366.349 130.16C367.629 127.92 369.376 126.173 371.589 124.92C373.829 123.64 376.336 123 379.109 123C381.882 123 384.376 123.64 386.589 124.92C388.829 126.173 390.589 127.92 391.869 130.16C393.149 132.373 393.789 134.853 393.789 137.6C393.789 140.347 393.149 142.84 391.869 145.08C390.589 147.293 388.829 149.04 386.589 150.32C384.376 151.573 381.882 152.2 379.109 152.2ZM379.109 146.08C380.656 146.08 382.042 145.72 383.269 145C384.522 144.253 385.496 143.24 386.189 141.96C386.909 140.653 387.269 139.2 387.269 137.6C387.269 136 386.909 134.56 386.189 133.28C385.496 131.973 384.522 130.96 383.269 130.24C382.042 129.493 380.656 129.12 379.109 129.12C377.562 129.12 376.162 129.493 374.909 130.24C373.682 130.96 372.709 131.973 371.989 133.28C371.296 134.56 370.949 136 370.949 137.6C370.949 139.2 371.296 140.653 371.989 141.96C372.709 143.24 373.682 144.253 374.909 145C376.162 145.72 377.562 146.08 379.109 146.08Z" fill="#303030"/>
<path d="M399.358 123.6H410.038L416.518 143.92L422.958 123.6H433.518V151.6H427.278V128.68L420.078 151.6H412.758L405.598 128.68V151.6H399.358V123.6Z" fill="#303030"/>
<path fill-rule="evenodd" clip-rule="evenodd" d="M227.699 5.69871H618.065V222.25H227.699V5.69871ZM222 227.948V0H623.764V227.948H222Z" fill="#303030"/>
<path fill-rule="evenodd" clip-rule="evenodd" d="M5.69878 5.69871H222.252V222.25H5.69878V5.69871ZM0 227.948V0H227.951V227.948H0Z" fill="#303030"/>
<path fill-rule="evenodd" clip-rule="evenodd" d="M98.5729 172.138L98.5402 172.272L98.4904 172.186L98.3377 172.274L98.4068 172.041L30.3708 54.2012L122.04 76.1909L99.4846 168.411L125.13 82.0252L157.511 138.11L98.5729 172.138ZM95.7955 173.854L55.9238 173.255L85.5679 156.142L95.7955 173.854ZM139.968 101.104L160.423 136.529L175.386 80.6581L139.968 101.104ZM197.608 91.4716L175.639 80.5764L172.656 102.571L197.608 91.4716Z" fill="#303030"/>
</svg>
