<svg width="50" height="50" viewBox="0 0 50 50" fill="none" xmlns="http://www.w3.org/2000/svg">
<path d="M50 25C50 33.254 43.3333 40 35 40C26.746 40 20 33.254 20 25C20 16.746 26.6667 10 34.9206 10C43.3333 10 50 16.746 50 25Z" fill="#FFB600"/>
<path d="M35 10C43.254 10 50 16.746 50 25C50 33.254 43.3333 40 35 40C26.746 40 20 33.254 20 25" fill="#F7981D"/>
<path d="M35 10C43.254 10 50 16.746 50 25C50 33.254 43.3333 40 35 40" fill="#FF8500"/>
<path d="M14.8413 10C6.66667 10.0794 0 16.746 0 25C0 33.254 6.66667 40 15 40C18.8889 40 22.381 38.4921 25.0794 36.1111C25.6349 35.6349 26.1111 35.0794 26.5873 34.5238H23.4921C23.0952 34.0476 22.6984 33.4921 22.381 33.0159H27.6984C28.0159 32.5397 28.3333 31.9841 28.5714 31.4286H21.5079C21.2698 30.9524 21.0317 30.3968 20.873 29.8413H29.127C29.6032 28.3333 29.9206 26.746 29.9206 25.0794C29.9206 23.9682 29.7619 22.9365 29.6032 21.9048H20.3968C20.4762 21.3492 20.6349 20.873 20.7937 20.3175H29.0476C28.8889 19.7619 28.6508 19.2063 28.4127 18.7302H21.4286C21.6667 18.1746 21.9841 17.6984 22.3016 17.1429H27.619C27.3016 16.5873 26.9048 16.0317 26.4286 15.5556H23.4921C23.9683 15 24.4444 14.5238 25 14.0476C22.381 11.5873 18.8095 10.1587 14.9206 10.1587C14.9206 10 14.9206 10 14.8413 10Z" fill="#FF5050"/>
<path d="M0 25C0 33.2539 6.66667 40 15 40C18.8889 40 22.381 38.492 25.0794 36.1111C25.6349 35.6349 26.1111 35.0793 26.5873 34.5238H23.4921C23.0952 34.0476 22.6984 33.492 22.381 33.0158H27.6984C28.0159 32.5396 28.3333 31.9841 28.5714 31.4285H21.5079C21.2698 30.9523 21.0317 30.3968 20.873 29.8412H29.127C29.6032 28.3333 29.9206 26.746 29.9206 25.0793C29.9206 23.9682 29.7619 22.9365 29.6032 21.9047H20.3968C20.4762 21.3492 20.6349 20.873 20.7937 20.3174H29.0476C28.8889 19.7619 28.6508 19.2063 28.4127 18.7301H21.4286C21.6667 18.1746 21.9841 17.6984 22.3016 17.1428H27.619C27.3016 16.5873 26.9048 16.0317 26.4286 15.5555H23.4921C23.9683 15 24.4444 14.5238 25 14.0476C22.381 11.5873 18.8095 10.1587 14.9206 10.1587H14.8413" fill="#E52836"/>
<path d="M14.9995 40C18.8884 40 22.3805 38.492 25.0789 36.1111C25.6345 35.6349 26.1107 35.0793 26.5869 34.5238H23.4916C23.0948 34.0476 22.698 33.492 22.3805 33.0158H27.698C28.0154 32.5396 28.3329 31.9841 28.571 31.4285H21.5075C21.2694 30.9523 21.0313 30.3968 20.8726 29.8412H29.1265C29.6027 28.3333 29.9202 26.746 29.9202 25.0793C29.9202 23.9682 29.7615 22.9365 29.6027 21.9047H20.3964C20.4757 21.3492 20.6345 20.873 20.7932 20.3174H29.0472C28.8884 19.7619 28.6503 19.2063 28.4122 18.7301H21.4281C21.6662 18.1746 21.9837 17.6984 22.3011 17.1428H27.6186C27.3011 16.5873 26.9043 16.0317 26.4281 15.5555H23.4916C23.9678 15 24.444 14.5238 24.9995 14.0476C22.3805 11.5873 18.8091 10.1587 14.9202 10.1587H14.8408" fill="#CB2026"/>
<path d="M20.3172 28.8096L20.5553 27.4604C20.4759 27.4604 20.3172 27.5397 20.1585 27.5397C19.6029 27.5397 19.5236 27.2223 19.6029 27.0635L20.0791 24.2858H20.9521L21.1902 22.7778H20.3966L20.5553 21.8254H18.968C18.968 21.8254 18.0156 27.0635 18.0156 27.6985C18.0156 28.6508 18.5712 29.0477 19.2855 29.0477C19.7617 29.0477 20.1585 28.8889 20.3172 28.8096Z" fill="white"/>
<path d="M20.873 26.2697C20.873 28.4919 22.381 29.0475 23.6508 29.0475C24.8413 29.0475 25.3175 28.8094 25.3175 28.8094L25.6349 27.3014C25.6349 27.3014 24.7619 27.6983 23.9683 27.6983C22.2223 27.6983 22.5397 26.4284 22.5397 26.4284H25.7937C25.7937 26.4284 26.0318 25.3967 26.0318 24.9999C26.0318 23.9681 25.4762 22.6983 23.7302 22.6983C22.0635 22.5395 20.873 24.2856 20.873 26.2697ZM23.6508 23.9681C24.5238 23.9681 24.3651 24.9999 24.3651 25.0792H22.6191C22.6191 24.9999 22.7778 23.9681 23.6508 23.9681Z" fill="white"/>
<path d="M33.7303 28.8095L34.0478 27.0635C34.0478 27.0635 33.2541 27.4603 32.6986 27.4603C31.5875 27.4603 31.1113 26.5873 31.1113 25.6349C31.1113 23.7301 32.0636 22.6984 33.1748 22.6984C33.9684 22.6984 34.6033 23.1746 34.6033 23.1746L34.8414 21.5079C34.8414 21.5079 33.889 21.1111 33.016 21.1111C31.1906 21.1111 29.3652 22.6984 29.3652 25.7143C29.3652 27.6984 30.3176 29.0476 32.2224 29.0476C32.8573 29.0476 33.7303 28.8095 33.7303 28.8095Z" fill="white"/>
<path d="M11.5872 22.5396C10.4761 22.5396 9.6824 22.857 9.6824 22.857L9.4443 24.2062C9.4443 24.2062 10.1586 23.8888 11.1903 23.8888C11.7459 23.8888 12.2221 23.9681 12.2221 24.4443C12.2221 24.7618 12.1427 24.8411 12.1427 24.8411C12.1427 24.8411 11.6665 24.8411 11.4284 24.8411C10.0792 24.8411 8.57129 25.3967 8.57129 27.2221C8.57129 28.6507 9.52367 28.9681 10.0792 28.9681C11.1903 28.9681 11.6665 28.2538 11.7459 28.2538L11.6665 28.8888H13.0951L13.73 24.5237C13.73 22.6189 12.1427 22.5396 11.5872 22.5396ZM11.9046 26.111C11.9046 26.3491 11.7459 27.6189 10.7935 27.6189C10.3173 27.6189 10.1586 27.2221 10.1586 26.984C10.1586 26.5872 10.3967 26.0316 11.5872 26.0316C11.8253 26.111 11.9046 26.111 11.9046 26.111Z" fill="white"/>
<path d="M15.2385 28.9681C15.6353 28.9681 17.6194 29.0475 17.6194 26.9046C17.6194 24.9205 15.7147 25.3173 15.7147 24.5237C15.7147 24.1269 16.0321 23.9681 16.5877 23.9681C16.8258 23.9681 17.6988 24.0475 17.6988 24.0475L17.9369 22.6189C17.9369 22.6189 17.3813 22.4602 16.429 22.4602C15.2385 22.4602 14.048 22.9364 14.048 24.5237C14.048 26.3491 16.0321 26.1904 16.0321 26.9046C16.0321 27.3808 15.4766 27.4602 15.0798 27.4602C14.3655 27.4602 13.6512 27.2221 13.6512 27.2221L13.4131 28.6507C13.4925 28.8094 13.8893 28.9681 15.2385 28.9681Z" fill="white"/>
<path d="M46.9047 21.2698L46.5872 23.4126C46.5872 23.4126 45.9523 22.619 45.0793 22.619C43.6507 22.619 42.3809 24.365 42.3809 26.4285C42.3809 27.6983 43.0158 29.0476 44.365 29.0476C45.3174 29.0476 45.8729 28.4126 45.8729 28.4126L45.7936 28.9682H47.3809L48.5713 21.3491L46.9047 21.2698ZM46.1904 25.4761C46.1904 26.3491 45.7936 27.4603 44.9205 27.4603C44.365 27.4603 44.0475 26.9841 44.0475 26.1904C44.0475 24.9206 44.6031 24.1269 45.3174 24.1269C45.8729 24.1269 46.1904 24.5237 46.1904 25.4761Z" fill="white"/>
<path d="M2.93665 28.8888L3.88903 23.1745L4.04776 28.8888H5.15887L7.22237 23.1745L6.34935 28.8888H8.01602L9.28586 21.2698H6.66681L5.07951 25.9523L5.00014 21.2698H2.69855L1.42871 28.8888H2.93665Z" fill="white"/>
<path d="M27.54 28.889C28.0162 26.2699 28.0955 24.1271 29.2066 24.5239C29.3654 23.4921 29.6035 23.0953 29.7622 22.6985C29.7622 22.6985 29.6828 22.6985 29.4447 22.6985C28.7305 22.6985 28.1749 23.6509 28.1749 23.6509L28.3336 22.7779H26.8257L25.7939 28.9683H27.54V28.889Z" fill="white"/>
<path d="M37.3811 22.5396C36.27 22.5396 35.4763 22.857 35.4763 22.857L35.2383 24.2062C35.2383 24.2062 35.9525 23.8888 36.9843 23.8888C37.5398 23.8888 38.016 23.9681 38.016 24.4443C38.016 24.7618 37.9367 24.8411 37.9367 24.8411C37.9367 24.8411 37.4605 24.8411 37.2224 24.8411C35.8732 24.8411 34.3652 25.3967 34.3652 27.2221C34.3652 28.6507 35.3176 28.9681 35.8732 28.9681C36.9843 28.9681 37.4605 28.2538 37.5398 28.2538L37.4605 28.8888H38.889L39.524 24.5237C39.6033 22.6189 37.9367 22.5396 37.3811 22.5396ZM37.7779 26.111C37.7779 26.3491 37.6192 27.6189 36.6668 27.6189C36.1906 27.6189 36.0319 27.2221 36.0319 26.984C36.0319 26.5872 36.27 26.0316 37.4605 26.0316C37.6986 26.111 37.6986 26.111 37.7779 26.111Z" fill="white"/>
<path d="M40.873 28.889C41.3492 26.2699 41.4285 24.1271 42.5397 24.5239C42.6984 23.4921 42.9365 23.0953 43.0952 22.6985C43.0952 22.6985 43.0158 22.6985 42.7777 22.6985C42.0635 22.6985 41.5079 23.6509 41.5079 23.6509L41.6666 22.7779H40.1587L39.127 28.9683H40.873V28.889Z" fill="white"/>
<path d="M17.8574 27.6985C17.8574 28.6508 18.413 29.0477 19.1273 29.0477C19.6828 29.0477 20.159 28.8889 20.3177 28.8096L20.5558 27.4604C20.4765 27.4604 20.3177 27.5397 20.159 27.5397C19.6034 27.5397 19.5241 27.2223 19.6034 27.0635L20.0796 24.2858H20.9526L21.1907 22.7778H20.3971L20.5558 21.8254" fill="#D9D9D9"/>
<path d="M21.667 26.2697C21.667 28.4919 22.3813 29.0475 23.6511 29.0475C24.8416 29.0475 25.3178 28.8094 25.3178 28.8094L25.6352 27.3014C25.6352 27.3014 24.7622 27.6983 23.9686 27.6983C22.2225 27.6983 22.54 26.4284 22.54 26.4284H25.794C25.794 26.4284 26.0321 25.3967 26.0321 24.9999C26.0321 23.9681 25.4765 22.6983 23.7305 22.6983C22.0638 22.5395 21.667 24.2856 21.667 26.2697ZM23.6511 23.9681C24.5241 23.9681 24.6829 24.9999 24.6829 25.0792H22.6194C22.6194 24.9999 22.7781 23.9681 23.6511 23.9681Z" fill="#D9D9D9"/>
<path d="M33.7306 28.8095L34.0481 27.0635C34.0481 27.0635 33.2544 27.4603 32.6989 27.4603C31.5878 27.4603 31.1116 26.5873 31.1116 25.6349C31.1116 23.7301 32.0639 22.6984 33.1751 22.6984C33.9687 22.6984 34.6036 23.1746 34.6036 23.1746L34.8417 21.5079C34.8417 21.5079 33.8893 21.1111 33.0163 21.1111C31.1909 21.1111 30.1592 22.6984 30.1592 25.7143C30.1592 27.6984 30.3179 29.0476 32.2227 29.0476C32.8576 29.0476 33.7306 28.8095 33.7306 28.8095Z" fill="#D9D9D9"/>
<path d="M9.4443 24.2858C9.4443 24.2858 10.1586 23.9683 11.1903 23.9683C11.7459 23.9683 12.2221 24.0477 12.2221 24.5239C12.2221 24.8413 12.1427 24.9207 12.1427 24.9207C12.1427 24.9207 11.6665 24.9207 11.4284 24.9207C10.0792 24.9207 8.57129 25.4763 8.57129 27.3017C8.57129 28.7302 9.52367 29.0477 10.0792 29.0477C11.1903 29.0477 11.6665 28.3334 11.7459 28.3334L11.6665 28.9683H13.0951L13.73 24.6032C13.73 22.7779 12.1427 22.6985 11.5078 22.6985L9.4443 24.2858ZM12.6983 26.1112C12.6983 26.3493 11.7459 27.6191 10.7935 27.6191C10.3173 27.6191 10.1586 27.2223 10.1586 26.9842C10.1586 26.5874 10.3967 26.0318 11.5872 26.0318C11.8253 26.1112 12.6983 26.1112 12.6983 26.1112Z" fill="#D9D9D9"/>
<path d="M13.4922 28.8094C13.4922 28.8094 13.9684 28.9681 15.3176 28.9681C15.7144 28.9681 17.6985 29.0475 17.6985 26.9046C17.6985 24.9205 15.7938 25.3173 15.7938 24.5237C15.7938 24.1269 16.1112 23.9681 16.6668 23.9681C16.9049 23.9681 17.7779 24.0475 17.7779 24.0475L18.016 22.6189C18.016 22.6189 17.4604 22.4602 16.508 22.4602C15.3176 22.4602 14.9208 22.9364 14.9208 24.5237C14.9208 26.3491 16.1112 26.1904 16.1112 26.9046C16.1112 27.3808 15.5557 27.4602 15.1588 27.4602" fill="#D9D9D9"/>
<path d="M46.5874 23.4126C46.5874 23.4126 45.9525 22.619 45.0795 22.619C43.6509 22.619 43.1747 24.365 43.1747 26.4285C43.1747 27.6983 43.016 29.0475 44.3652 29.0475C45.3176 29.0475 45.8731 28.4126 45.8731 28.4126L45.7938 28.9682H47.3811L48.5715 21.3491L46.5874 23.4126ZM46.508 25.4761C46.508 26.3491 45.7938 27.4602 44.9207 27.4602C44.3652 27.4602 44.0477 26.984 44.0477 26.1904C44.0477 24.9205 44.6033 24.1269 45.3176 24.1269C45.8731 24.1269 46.508 24.5237 46.508 25.4761Z" fill="#D9D9D9"/>
<path d="M2.93665 28.8888L3.88903 23.1745L4.04776 28.8888H5.15887L7.22237 23.1745L6.34935 28.8888H8.01602L9.28586 21.2698H7.30173L5.07951 25.9523L5.00014 21.2698H4.12713L1.42871 28.8888H2.93665Z" fill="#D9D9D9"/>
<path d="M25.873 28.889H27.5397C28.0159 26.2699 28.0953 24.1271 29.2064 24.5239C29.3651 23.4921 29.6032 23.0953 29.7619 22.6985C29.7619 22.6985 29.6826 22.6985 29.4445 22.6985C28.7302 22.6985 28.1746 23.6509 28.1746 23.6509L28.3334 22.7779" fill="#D9D9D9"/>
<path d="M35.2383 24.2858C35.2383 24.2858 35.9525 23.9683 36.9843 23.9683C37.5398 23.9683 38.016 24.0477 38.016 24.5239C38.016 24.8413 37.9367 24.9207 37.9367 24.9207C37.9367 24.9207 37.4605 24.9207 37.2224 24.9207C35.8732 24.9207 34.3652 25.4763 34.3652 27.3017C34.3652 28.7302 35.3176 29.0477 35.8732 29.0477C36.9843 29.0477 37.4605 28.3334 37.5398 28.3334L37.4605 28.9683H38.8891L39.524 24.6032C39.524 22.7779 37.9367 22.6985 37.3017 22.6985L35.2383 24.2858ZM38.4922 26.1112C38.4922 26.3493 37.5398 27.6191 36.5875 27.6191C36.1113 27.6191 35.9525 27.2223 35.9525 26.9842C35.9525 26.5874 36.1906 26.0318 37.3811 26.0318C37.6986 26.1112 38.4922 26.1112 38.4922 26.1112Z" fill="#D9D9D9"/>
<path d="M39.2061 28.889H40.8727C41.3489 26.2699 41.4283 24.1271 42.5394 24.5239C42.6981 23.4921 42.9362 23.0953 43.0949 22.6985C43.0949 22.6985 43.0156 22.6985 42.7775 22.6985C42.0632 22.6985 41.5076 23.6509 41.5076 23.6509L41.6664 22.7779" fill="#D9D9D9"/>
</svg>
