<svg width="1000" height="619" viewBox="0 0 1000 619" fill="none" xmlns="http://www.w3.org/2000/svg">
<path fill-rule="evenodd" clip-rule="evenodd" d="M494.772 158.746C494.735 158.713 494.699 158.679 494.662 158.645C356.949 31.989 35.4835 271.488 500 578.244C964.516 271.459 643.052 31.9885 505.338 158.645C505.301 158.679 505.265 158.712 505.228 158.746C503.454 160.381 501.711 162.078 500 163.835C498.289 162.078 496.546 160.382 494.772 158.746ZM499.999 520.538C595.478 453.508 648.139 392.924 673.826 343.458C701.215 290.716 697.655 251.905 685.488 226.537C658.447 170.163 580.585 154.26 537.635 193.761C536.472 194.831 535.322 195.948 534.188 197.113L500 232.237L465.812 197.113C464.678 195.948 463.528 194.831 462.365 193.762C419.419 154.263 341.555 170.166 314.513 226.548C302.344 251.918 298.785 290.73 326.173 343.471C351.86 392.935 404.52 453.515 499.999 520.538Z" fill="#303030"/>
</svg>
