<svg width="1000" height="619" viewBox="0 0 1000 619" fill="none" xmlns="http://www.w3.org/2000/svg">
<path fill-rule="evenodd" clip-rule="evenodd" d="M564.555 273.521C563.258 274.636 561.428 274.881 559.886 274.139C558.345 273.405 557.385 271.827 557.438 270.121C557.762 264.082 557.055 258.458 556.42 249.7C554.258 219.887 539.152 204.363 539.152 204.363C539.152 204.363 533.992 181.146 528.083 161.956C525.359 153.108 517.361 136.217 517.361 136.217C517.361 136.217 531.818 132.708 546.858 126.002C573.116 114.306 584.107 78.428 584.107 78.428C584.107 78.428 568.531 116.768 544.858 122.031C520.998 127.343 513.719 128.593 513.719 128.593C492.529 102.304 487.722 93.735 478.993 84.4601C464.323 68.8673 453.86 58 453.86 58C530.155 145.302 525.157 196.507 525.157 196.507C511.14 190.659 494.816 185.566 480.386 183.138C446.878 177.494 403.573 180.459 403.573 180.459C447.802 179.548 506.085 188.429 522.269 202.812C550.335 227.762 538.49 271.814 534.52 281.92C527.431 299.967 507.55 324.17 493 348.045C491.76 350.187 489.518 351.547 487.048 351.656C484.579 351.772 482.223 350.623 480.793 348.602C478.18 344.95 474.858 341.992 458.374 328.8C444.281 317.525 391.479 257.513 385.809 230.816C380.493 205.811 386.292 170.836 386.292 170.836C386.292 170.836 379.452 198.969 381.022 221.383C384.925 276.989 417.924 301.872 415.13 305.673C406.931 316.839 395.775 298.899 362.491 302.394C338.234 304.952 308.607 281.892 290 260.648C290 260.648 324.032 305.359 361.933 308.135C384.409 309.78 412.751 318.552 439.298 337.981C463.059 355.43 476.164 383.882 473.993 413.286C471.801 443.364 470.742 539.084 470.596 556.982C470.596 556.982 472.348 572.569 453.983 577.547C451.917 578.124 450.441 579.961 450.319 582.109C450.196 584.259 451.454 586.244 453.453 587.053C464.099 591.324 469.7 595.846 484.169 596.737C504.207 597.967 523.275 586.843 540.136 586.7C541.011 586.734 541.834 586.285 542.269 585.523C542.705 584.761 542.68 583.824 542.204 583.089C532.239 567.203 502.97 449.736 507.643 401.373C508.779 389.574 514.01 378.551 522.426 370.214C531.982 360.741 545.785 350.167 562.699 346.012C584.767 340.592 613.27 339.939 638.508 354.199C672.929 373.648 694.569 375.239 704.61 365.052C713.441 356.089 734.358 336.362 747.78 334.512C747.78 334.512 727.147 334.641 706.195 358.892C683.165 385.555 644.88 322.523 571.921 331.751C560.761 333.159 546.428 333.975 535.787 336.532C571.716 278.831 611.917 280.919 648.339 278.247C686.234 275.473 717.996 231.522 717.996 231.522C699.39 252.767 671.816 272.174 647.475 270.576C612.899 268.312 598.503 277.649 594.83 267.795C591.747 259.526 625.857 239.118 630.973 189.333C633.271 166.974 623.98 140.949 623.98 140.949C623.98 140.949 631.057 166.342 625.744 191.347C620.072 218.045 601.568 244.797 587.475 256.078C579.659 262.327 571.542 267.89 564.555 273.521Z" fill="url(#paint0_linear_3827_2)"/>
<path fill-rule="evenodd" clip-rule="evenodd" d="M564.555 273.521C563.258 274.636 561.428 274.881 559.886 274.139C558.345 273.405 557.385 271.827 557.438 270.121C557.762 264.082 557.055 258.458 556.42 249.7C554.258 219.887 539.152 204.363 539.152 204.363C539.152 204.363 533.992 181.146 528.083 161.956C525.359 153.108 517.361 136.217 517.361 136.217C517.361 136.217 531.818 132.708 546.858 126.002C573.116 114.306 584.107 78.428 584.107 78.428C584.107 78.428 568.531 116.768 544.858 122.031C520.998 127.343 513.719 128.593 513.719 128.593C492.529 102.304 487.722 93.735 478.993 84.4601C464.323 68.8673 453.86 58 453.86 58C530.155 145.302 525.157 196.507 525.157 196.507C511.14 190.659 494.816 185.566 480.386 183.138C446.878 177.494 403.573 180.459 403.573 180.459C447.802 179.548 506.085 188.429 522.269 202.812C550.335 227.762 538.49 271.814 534.52 281.92C527.431 299.967 507.55 324.17 493 348.045C491.76 350.187 489.518 351.547 487.048 351.656C484.579 351.772 482.223 350.623 480.793 348.602C478.18 344.95 474.858 341.992 458.374 328.8C444.281 317.525 391.479 257.513 385.809 230.816C380.493 205.811 386.292 170.836 386.292 170.836C386.292 170.836 379.452 198.969 381.022 221.383C384.925 276.989 417.924 301.872 415.13 305.673C406.931 316.839 395.775 298.899 362.491 302.394C338.234 304.952 308.607 281.892 290 260.648C290 260.648 324.032 305.359 361.933 308.135C384.409 309.78 412.751 318.552 439.298 337.981C463.059 355.43 476.164 383.882 473.993 413.286C471.801 443.364 470.742 539.084 470.596 556.982C470.596 556.982 472.348 572.569 453.983 577.547C451.917 578.124 450.441 579.961 450.319 582.109C450.196 584.259 451.454 586.244 453.453 587.053C464.099 591.324 469.7 595.846 484.169 596.737C504.207 597.967 523.275 586.843 540.136 586.7C541.011 586.734 541.834 586.285 542.269 585.523C542.705 584.761 542.68 583.824 542.204 583.089C532.239 567.203 502.97 449.736 507.643 401.373C508.779 389.574 514.01 378.551 522.426 370.214C531.982 360.741 545.785 350.167 562.699 346.012C584.767 340.592 613.27 339.939 638.508 354.199C672.929 373.648 694.569 375.239 704.61 365.052C713.441 356.089 734.358 336.362 747.78 334.512C747.78 334.512 727.147 334.641 706.195 358.892C683.165 385.555 644.88 322.523 571.921 331.751C560.761 333.159 546.428 333.975 535.787 336.532C571.716 278.831 611.917 280.919 648.339 278.247C686.234 275.473 717.996 231.522 717.996 231.522C699.39 252.767 671.816 272.174 647.475 270.576C612.899 268.312 598.503 277.649 594.83 267.795C591.747 259.526 625.857 239.118 630.973 189.333C633.271 166.974 623.98 140.949 623.98 140.949C623.98 140.949 631.057 166.342 625.744 191.347C620.072 218.045 601.568 244.797 587.475 256.078C579.659 262.327 571.542 267.89 564.555 273.521Z" stroke="url(#paint1_linear_3827_2)" stroke-width="2" stroke-miterlimit="2" stroke-linejoin="round"/>
<path fill-rule="evenodd" clip-rule="evenodd" d="M952.587 7.63379C952.587 7.63379 965.077 32.7109 946.334 38.2017C949.468 43.2662 950.111 45.0012 950.111 45.0012C956.314 49.9255 963.766 51.8706 963.766 51.8706C956.964 67.2451 944.229 64.7332 944.229 64.7332C946.721 52.5189 942.833 48.5119 942.833 48.5119C942.196 48.2905 941.637 48.108 941.141 47.9458C938.808 47.1834 937.848 46.8698 936.504 45.0829C915.48 57.747 906.566 26.3205 906.566 26.3205C906.566 26.3205 908.982 26.9045 917.759 30.4736C923.832 32.9445 929.627 32.4363 931.949 32.0741C931.976 31.4842 932.025 31.1453 932.025 31.1453C933.777 26.8694 929.464 24.3577 929.464 24.3577L931.756 23.277C931.756 23.277 934.209 19.6379 937.216 23.207C938.113 24.2701 939.73 28.2714 939.73 28.2714C939.786 28.3745 939.843 28.4764 939.899 28.5781C939.964 28.6955 940.03 28.8127 940.094 28.9316C941.738 27.4478 945.207 23.908 948.049 18.2594C952.369 9.67254 952.587 7.63379 952.587 7.63379ZM55.1023 43.8931C55.1023 43.8931 38.381 77.3292 63.357 84.6504C59.1648 91.4031 58.3019 93.7164 58.3019 93.7164C50.0181 100.282 40.0764 102.876 40.0764 102.876C49.1048 123.375 66.0911 120.026 66.0911 120.026C62.8015 103.74 67.9963 98.3973 67.9963 98.3973C68.847 98.1021 69.5923 97.8588 70.2545 97.6425C73.3673 96.626 74.6474 96.2079 76.4444 93.8253C104.442 110.711 116.412 68.8087 116.412 68.8087C116.412 68.8087 113.189 69.5874 101.477 74.3462C93.3733 77.6408 84.8281 78.9337 81.7327 78.4508C81.6979 77.6642 81.6342 77.2123 81.6342 77.2123C79.3089 71.5112 85.8873 66.1917 85.8873 66.1917L82.8337 64.7507C82.8337 64.7507 79.5732 59.8986 75.5538 64.6574C74.3558 66.0749 71.3276 72.2512 71.3276 72.2512C71.2461 72.3992 71.1648 72.5452 71.0835 72.6913C71.0022 72.8373 70.9209 72.9832 70.8395 73.1312C68.653 71.1529 64.8973 65.592 61.1238 58.0605C55.3864 46.6114 55.1023 43.8931 55.1023 43.8931ZM868.45 503.284C868.399 495.117 858.81 498.031 858.81 498.031L863.057 494.646C868.686 484.776 879.245 496.742 879.245 496.742C883.444 491.888 883.666 487.874 883.842 484.678C884.018 481.487 884.149 479.113 888.155 477.539C896.171 474.388 906.886 460.771 906.886 460.771C910.498 468.819 905.106 480.633 905.106 480.633C920.929 478.92 933.407 459.924 933.407 459.924C929.084 511.994 895.371 513.464 895.371 513.464C904.761 517.194 912.189 513.843 912.189 513.843C913.563 528.076 895.786 534.641 895.786 534.641C893.71 525.881 891.058 519.696 891.058 519.696C868.884 523.08 868.494 510.257 868.45 503.284ZM265.06 407.969C265.06 407.969 257.385 407.715 258.966 413.769C260.317 418.939 262.571 428.507 245.488 430.4C245.488 430.4 244.752 435.504 244.953 442.399C244.953 442.399 230.494 441.066 228.688 430.259C228.688 430.259 234.85 431.266 241.06 426.643C241.06 426.643 215.817 432.241 202.29 394.559C202.29 394.559 215.293 406.144 227.344 404.274C227.344 404.274 221.01 396.599 222.087 389.926C222.087 389.926 232.718 397.88 239.276 398.622C242.553 398.993 243.121 400.724 243.884 403.051C244.648 405.381 245.609 408.309 249.679 411.068C249.679 411.068 255.121 400.118 261.245 406.306L265.06 407.969Z" fill="url(#paint2_linear_3827_2)" fill-opacity="0.6"/>
<path fill-rule="evenodd" clip-rule="evenodd" d="M582.887 81.5126C582.887 81.5126 559.907 77.7636 566.464 35.7607C566.464 35.7607 598.396 52.9615 582.887 81.5126ZM473.687 85.2058C473.687 85.2058 456.919 69.4904 428.152 99.9581C428.152 99.9581 460.792 114.561 473.687 85.2058ZM632.749 152.919C632.749 152.919 621.34 130.526 661.982 109.41C661.982 109.41 667.427 148.183 632.749 152.919ZM576.327 347.896C576.327 347.896 598.79 336.33 620.035 377.213C620.035 377.213 581.124 382.821 576.327 347.896ZM574.25 329.75C574.25 329.75 606.188 331.185 620.259 300.752C620.259 300.752 580.23 293.815 574.25 329.75ZM572.527 349.527C572.527 349.527 592.278 365.292 563.833 401.52C563.833 401.52 542.739 368.276 572.527 349.527ZM444.494 309.188C444.494 309.188 425.867 295.716 450.15 261.568C450.15 261.568 470.752 290.864 444.494 309.188ZM447.119 312.802C447.119 312.802 455.702 292.276 483.502 295.336C483.502 295.336 471.397 322.051 447.119 312.802ZM571.596 329.763C571.596 329.763 555.777 328.999 556.998 300.091C556.998 300.091 579.895 309.262 571.596 329.763ZM587.171 82.7613C587.171 82.7613 592.939 63.0016 628.974 73.3535C628.974 73.3535 610.469 99.4978 587.171 82.7613ZM532.629 124.2C532.629 124.2 514.577 128.071 507.37 95.1582C507.37 95.1582 535.895 98.6353 532.629 124.2ZM535.703 124.495C535.703 124.495 528.789 110.838 553.577 98.0411C553.577 98.0411 556.832 121.666 535.703 124.495ZM524.497 296.161C524.497 296.161 539.547 273.298 498.098 245.535C498.098 245.535 487.53 286.849 524.497 296.161Z" fill="url(#paint3_linear_3827_2)" fill-opacity="0.4"/>
<path fill-rule="evenodd" clip-rule="evenodd" d="M472.675 75.9114C472.469 76.0739 472.334 76.3251 472.326 76.6119C472.326 76.6119 472.335 77.6431 471.673 78.1235C471.405 78.3181 471.023 78.3792 470.49 78.2742C470.009 78.1783 469.54 78.5016 469.448 78.9967C469.354 79.4917 469.669 79.9712 470.152 80.0671C471.308 80.2964 472.12 80.037 472.701 79.615C474.017 78.6606 474.107 76.6621 474.107 76.6621C474.115 76.3233 473.944 76.0228 473.681 75.8575C478.008 70.0111 488.993 52.7404 485.176 32.431C483.76 24.8903 477.119 23.7669 475.274 32.0575C475.274 32.0575 465.25 14.2351 460.744 34.4833C460.744 34.4833 456.984 31.4382 454.363 32.6511C451.651 33.8979 450.607 38.2126 452.804 40.1169C473.733 58.2416 473.704 71.1162 472.675 75.9114ZM521.46 143.975C521.775 144.071 521.997 144.315 522.066 144.598C546.047 149.215 550.496 139.744 554.307 131.63C556.224 127.547 557.98 123.808 561.982 122.38C566.483 120.777 567.248 127.635 567.248 127.635C582.395 124.42 572.395 136.253 572.395 136.253C578.826 135.932 579.156 141.916 573.989 144.447C567.205 147.771 555.466 149.493 539.472 148.637C533.368 148.308 526.969 146.894 521.777 145.438C521.544 145.629 521.212 145.704 520.897 145.608C520.897 145.608 516.459 144.247 509.536 142.434C509.052 142.307 508.768 141.833 508.902 141.377C509.037 140.921 509.54 140.653 510.024 140.78C516.993 142.605 521.46 143.975 521.46 143.975ZM390.611 262.149C390.26 261.89 389.785 261.918 389.467 262.189C362.178 248.918 365.703 237.403 368.691 227.645C370.087 223.083 371.367 218.905 369.326 215.111C367.028 210.848 361.656 215.881 361.656 215.881C352.402 203.29 351.727 219.443 351.727 219.443C347.07 214.94 342.639 219.553 344.793 225.007C347.621 232.166 355.331 241.303 368.072 251.164C374.905 256.449 383.672 260.388 389.199 262.571C389.059 262.948 389.178 263.389 389.518 263.639C390.771 264.563 392.393 265.065 394.102 265.29C393.174 266.351 392.124 267.478 390.993 268.543C390.436 269.068 390.397 269.96 390.907 270.534C391.417 271.108 392.282 271.148 392.839 270.624C394.787 268.79 396.391 266.896 397.536 265.414C400.905 265.262 403.826 264.458 403.826 264.458C404.318 264.322 404.607 263.813 404.471 263.321C404.336 262.829 403.828 262.538 403.337 262.673C403.337 262.673 401.432 263.198 398.97 263.452C399.311 262.956 399.495 262.662 399.5 262.65C407.388 258.526 422.596 248.475 428.175 230.197C430.482 222.643 425.013 218.286 419.402 224.882C419.402 224.882 418.819 203.672 405.114 219.78C405.114 219.78 403.164 215.127 400.219 214.911C397.175 214.68 394.179 218.069 395.259 220.902C403.768 243.187 401.044 255.025 398.031 260.627C397.902 260.651 397.441 261.227 396.726 262.121L396.726 262.122L396.726 262.122L396.726 262.122L396.724 262.124L396.723 262.126C396.388 262.545 395.997 263.034 395.558 263.568C393.735 263.484 391.926 263.118 390.611 262.149ZM453.682 337.473C455.819 331.922 455.875 326.163 455.875 326.163C455.882 325.398 456.509 324.781 457.274 324.788C458.037 324.794 458.651 325.422 458.644 326.186C458.644 326.186 458.586 332.441 456.266 338.468C454.653 342.657 451.949 346.702 447.562 348.68C447.527 348.696 447.491 348.711 447.454 348.724C440.804 354.824 426.254 365.653 407.592 364.675C399.823 364.268 397.745 357.575 405.799 354.511C405.799 354.511 386.481 346.663 406.153 339.181C406.153 339.181 402.559 335.729 403.4 332.856C404.262 329.884 408.442 328.202 410.668 330.203C427.864 345.671 439.61 347.377 445.918 346.545C446.05 346.38 446.223 346.243 446.428 346.15C450.126 344.483 452.324 341.003 453.682 337.473ZM618.518 230.702C618.482 230.655 618.439 230.613 618.392 230.574C618.392 230.574 615.55 228.192 612.514 227.534C610.258 227.045 607.91 227.431 606.328 230.022C606.064 230.453 606.212 231.009 606.659 231.264C607.105 231.517 607.681 231.374 607.944 230.944C609.005 229.206 610.591 228.975 612.104 229.302C614.72 229.869 617.159 231.94 617.159 231.94C617.458 232.192 617.877 232.228 618.21 232.06C624.048 235.784 638.067 243.077 653.876 239.494C660.135 238.077 660.846 232.536 653.849 231.275C653.849 231.275 668.411 222.391 651.321 219.31C651.321 219.31 653.739 216.095 652.635 213.962C651.498 211.755 647.854 211.028 646.336 212.912C633.362 229.023 623.352 230.977 618.518 230.702ZM632.48 329.04C628.549 332.064 625.495 335.07 623.185 337.704C622.99 337.721 622.798 337.803 622.641 337.955C622.641 337.955 619.771 340.703 614.075 347.525C613.727 347.941 613.754 348.588 614.134 348.969C614.514 349.349 615.105 349.321 615.453 348.905C621.052 342.198 623.87 339.493 623.87 339.493C624.04 339.33 624.142 339.115 624.176 338.888C641.335 322.658 648.755 329.923 655.327 336.359C658.928 339.885 662.275 343.162 666.83 342.187C671.626 341.156 668.391 333.827 668.391 333.827C683.294 328.171 667.939 322.16 667.939 322.16C673.672 318.713 670.558 312.515 664.66 313.004C656.915 313.648 645.801 318.802 632.48 329.04Z" fill="url(#paint4_linear_3827_2)"/>
<defs>
<linearGradient id="paint0_linear_3827_2" x1="560.45" y1="74.8924" x2="510.32" y2="535.879" gradientUnits="userSpaceOnUse">
<stop offset="0.085186" stop-color="#67B0E7"/>
<stop offset="0.889018" stop-color="#E9DB59"/>
<stop offset="1" stop-color="#E9D059" stop-opacity="0"/>
</linearGradient>
<linearGradient id="paint1_linear_3827_2" x1="495.901" y1="105.158" x2="545.322" y2="486.604" gradientUnits="userSpaceOnUse">
<stop stop-color="#67B0E7"/>
<stop offset="0.561752" stop-color="#E9D059"/>
<stop offset="1" stop-color="#E9D059" stop-opacity="0"/>
</linearGradient>
<linearGradient id="paint2_linear_3827_2" x1="93.5" y1="-342" x2="1079.36" y2="578.011" gradientUnits="userSpaceOnUse">
<stop stop-color="#1E9DFF"/>
<stop offset="0.776042" stop-color="#FCD400"/>
<stop offset="1" stop-color="#DCBA04"/>
</linearGradient>
<linearGradient id="paint3_linear_3827_2" x1="545.222" y1="35.7607" x2="545.222" y2="401.52" gradientUnits="userSpaceOnUse">
<stop stop-color="#1E9DFF"/>
<stop offset="0.776042" stop-color="#FCD400"/>
<stop offset="1" stop-color="#DCBA04"/>
</linearGradient>
<linearGradient id="paint4_linear_3827_2" x1="396.041" y1="86.6978" x2="674.154" y2="367.492" gradientUnits="userSpaceOnUse">
<stop stop-color="#1E9DFF"/>
<stop offset="0.78" stop-color="#FCD400" stop-opacity="0.8"/>
<stop offset="1" stop-color="#DCBA04"/>
</linearGradient>
</defs>
</svg>
