<svg width="1000" height="619" viewBox="0 0 1000 619" fill="none" xmlns="http://www.w3.org/2000/svg">
<path fill-rule="evenodd" clip-rule="evenodd" d="M550.4 212.723C550.4 212.723 566.748 209.558 561.18 179.676C561.18 179.676 538.716 192.644 550.4 212.723ZM552.331 217.499C552.331 217.499 562.485 192.558 608.007 210.881C608.007 210.881 580.417 242.417 552.331 217.499ZM694.129 377.221C694.129 377.221 713.141 367.432 731.123 402.035C731.123 402.035 698.189 406.781 694.129 377.221ZM738.19 337.384C738.19 337.384 746.511 323.883 771.18 338.96C771.18 338.96 752.089 354.595 738.19 337.384ZM737.347 341.314C737.347 341.314 749.427 342.69 752.063 357.794C752.063 357.794 736.199 355.512 737.347 341.314ZM736.96 336.038C736.96 336.038 729.743 328.817 742.797 315.558C742.797 315.558 749.764 329.856 736.96 336.038ZM691.673 377.447C691.673 377.447 670.311 377.72 670.585 416.743C670.585 416.743 701.889 405.479 691.673 377.447Z" fill="url(#paint0_linear_3827_27)"/>
<g clip-path="url(#clip0_3827_27)">
<path fill-rule="evenodd" clip-rule="evenodd" d="M564.555 273.521C563.258 274.636 561.428 274.881 559.886 274.139C558.345 273.405 557.385 271.827 557.438 270.121C557.762 264.082 557.055 258.458 556.42 249.7C554.258 219.887 539.152 204.363 539.152 204.363C539.152 204.363 533.992 181.146 528.083 161.956C525.359 153.108 517.361 136.217 517.361 136.217C517.361 136.217 531.818 132.708 546.858 126.002C573.116 114.306 584.107 78.428 584.107 78.428C584.107 78.428 568.531 116.768 544.858 122.031C520.998 127.343 513.719 128.593 513.719 128.593C492.529 102.304 487.722 93.735 478.993 84.4601C464.323 68.8673 453.86 58 453.86 58C530.155 145.302 525.157 196.507 525.157 196.507C511.14 190.659 494.816 185.566 480.386 183.138C446.878 177.494 403.573 180.459 403.573 180.459C447.802 179.548 506.085 188.429 522.269 202.812C550.335 227.762 538.49 271.814 534.52 281.92C527.431 299.967 507.55 324.17 493 348.045C491.76 350.187 489.518 351.547 487.048 351.656C484.579 351.772 482.223 350.623 480.793 348.602C478.18 344.95 474.858 341.992 458.374 328.8C444.281 317.525 391.479 257.513 385.809 230.816C380.493 205.811 386.292 170.836 386.292 170.836C386.292 170.836 379.452 198.969 381.022 221.383C384.925 276.989 417.924 301.872 415.13 305.673C406.931 316.839 395.775 298.899 362.491 302.394C338.234 304.952 308.607 281.892 290 260.648C290 260.648 324.032 305.359 361.933 308.135C384.409 309.78 412.751 318.552 439.298 337.981C463.059 355.43 476.164 383.882 473.993 413.286C471.801 443.364 470.742 539.084 470.596 556.982C470.596 556.982 472.348 572.569 453.983 577.547C451.917 578.124 450.441 579.961 450.319 582.109C450.196 584.259 451.454 586.244 453.453 587.053C464.099 591.324 469.7 595.846 484.169 596.737C504.207 597.967 523.275 586.843 540.136 586.7C541.011 586.734 541.834 586.285 542.269 585.523C542.705 584.761 542.68 583.824 542.204 583.089C532.239 567.203 502.97 449.736 507.643 401.373C508.779 389.574 514.01 378.551 522.426 370.214C531.982 360.741 545.785 350.167 562.699 346.012C584.767 340.592 613.27 339.939 638.508 354.199C672.929 373.648 694.569 375.239 704.61 365.052C713.441 356.089 734.358 336.362 747.78 334.512C747.78 334.512 727.147 334.641 706.195 358.892C683.165 385.555 644.88 322.523 571.921 331.751C560.761 333.159 546.428 333.975 535.787 336.532C571.716 278.831 611.917 280.919 648.339 278.247C686.234 275.473 717.996 231.522 717.996 231.522C699.39 252.767 671.816 272.174 647.475 270.576C612.899 268.312 598.503 277.649 594.83 267.795C591.747 259.526 625.857 239.118 630.973 189.333C633.271 166.974 623.98 140.949 623.98 140.949C623.98 140.949 631.057 166.342 625.744 191.347C620.072 218.045 601.568 244.797 587.475 256.078C579.659 262.327 571.542 267.89 564.555 273.521Z" fill="url(#paint1_linear_3827_27)"/>
<path fill-rule="evenodd" clip-rule="evenodd" d="M564.555 273.521C563.258 274.636 561.428 274.881 559.886 274.139C558.345 273.405 557.385 271.827 557.438 270.121C557.762 264.082 557.055 258.458 556.42 249.7C554.258 219.887 539.152 204.363 539.152 204.363C539.152 204.363 533.992 181.146 528.083 161.956C525.359 153.108 517.361 136.217 517.361 136.217C517.361 136.217 531.818 132.708 546.858 126.002C573.116 114.306 584.107 78.428 584.107 78.428C584.107 78.428 568.531 116.768 544.858 122.031C520.998 127.343 513.719 128.593 513.719 128.593C492.529 102.304 487.722 93.735 478.993 84.4601C464.323 68.8673 453.86 58 453.86 58C530.155 145.302 525.157 196.507 525.157 196.507C511.14 190.659 494.816 185.566 480.386 183.138C446.878 177.494 403.573 180.459 403.573 180.459C447.802 179.548 506.085 188.429 522.269 202.812C550.335 227.762 538.49 271.814 534.52 281.92C527.431 299.967 507.55 324.17 493 348.045C491.76 350.187 489.518 351.547 487.048 351.656C484.579 351.772 482.223 350.623 480.793 348.602C478.18 344.95 474.858 341.992 458.374 328.8C444.281 317.525 391.479 257.513 385.809 230.816C380.493 205.811 386.292 170.836 386.292 170.836C386.292 170.836 379.452 198.969 381.022 221.383C384.925 276.989 417.924 301.872 415.13 305.673C406.931 316.839 395.775 298.899 362.491 302.394C338.234 304.952 308.607 281.892 290 260.648C290 260.648 324.032 305.359 361.933 308.135C384.409 309.78 412.751 318.552 439.298 337.981C463.059 355.43 476.164 383.882 473.993 413.286C471.801 443.364 470.742 539.084 470.596 556.982C470.596 556.982 472.348 572.569 453.983 577.547C451.917 578.124 450.441 579.961 450.319 582.109C450.196 584.259 451.454 586.244 453.453 587.053C464.099 591.324 469.7 595.846 484.169 596.737C504.207 597.967 523.275 586.843 540.136 586.7C541.011 586.734 541.834 586.285 542.269 585.523C542.705 584.761 542.68 583.824 542.204 583.089C532.239 567.203 502.97 449.736 507.643 401.373C508.779 389.574 514.01 378.551 522.426 370.214C531.982 360.741 545.785 350.167 562.699 346.012C584.767 340.592 613.27 339.939 638.508 354.199C672.929 373.648 694.569 375.239 704.61 365.052C713.441 356.089 734.358 336.362 747.78 334.512C747.78 334.512 727.147 334.641 706.195 358.892C683.165 385.555 644.88 322.523 571.921 331.751C560.761 333.159 546.428 333.975 535.787 336.532C571.716 278.831 611.917 280.919 648.339 278.247C686.234 275.473 717.996 231.522 717.996 231.522C699.39 252.767 671.816 272.174 647.475 270.576C612.899 268.312 598.503 277.649 594.83 267.795C591.747 259.526 625.857 239.118 630.973 189.333C633.271 166.974 623.98 140.949 623.98 140.949C623.98 140.949 631.057 166.342 625.744 191.347C620.072 218.045 601.568 244.797 587.475 256.078C579.659 262.327 571.542 267.89 564.555 273.521Z" stroke="url(#paint2_linear_3827_27)" stroke-width="2" stroke-miterlimit="2" stroke-linejoin="round"/>
</g>
<defs>
<linearGradient id="paint0_linear_3827_27" x1="771.407" y1="273.945" x2="591.103" y2="228.048" gradientUnits="userSpaceOnUse">
<stop stop-color="#67B0E7"/>
<stop offset="0.472242" stop-color="#E9D059"/>
<stop offset="1" stop-color="#E9D059"/>
</linearGradient>
<linearGradient id="paint1_linear_3827_27" x1="519" y1="58" x2="500.154" y2="563.987" gradientUnits="userSpaceOnUse">
<stop stop-color="#67B0E7"/>
<stop offset="0.914054" stop-color="#E9DB59"/>
<stop offset="1" stop-color="#E9D059" stop-opacity="0"/>
</linearGradient>
<linearGradient id="paint2_linear_3827_27" x1="495.901" y1="105.158" x2="545.322" y2="486.604" gradientUnits="userSpaceOnUse">
<stop stop-color="#67B0E7"/>
<stop offset="0.561752" stop-color="#E9D059"/>
<stop offset="1" stop-color="#E9D059" stop-opacity="0"/>
</linearGradient>
<clipPath id="clip0_3827_27">
<rect width="322.519" height="305.344" fill="white" transform="translate(461.832 290.076)"/>
</clipPath>
</defs>
</svg>
