<svg width="18" height="19" viewBox="0 0 18 19" fill="none" xmlns="http://www.w3.org/2000/svg">
<path fill-rule="evenodd" clip-rule="evenodd" d="M14.7273 6.54545C16.5347 6.54545 18 5.08023 18 3.27273C18 1.46523 16.5347 0 14.7273 0C12.9198 0 11.4545 1.46523 11.4545 3.27273C11.4545 3.60022 11.5027 3.91648 11.5922 4.21485L5.95544 7.12498C5.36368 6.27988 4.38275 5.72727 3.27273 5.72727C1.46525 5.72727 0 7.1925 0 9C0 10.8075 1.46525 12.2727 3.27273 12.2727C4.44994 12.2727 5.48198 11.6512 6.05859 10.7184L11.7928 14.0948C11.5763 14.532 11.4545 15.0245 11.4545 15.5455C11.4545 17.353 12.9198 18.8182 14.7273 18.8182C16.5347 18.8182 18 17.353 18 15.5455C18 13.738 16.5347 12.2727 14.7273 12.2727C13.7349 12.2727 12.8457 12.7144 12.2456 13.4119L6.39944 9.96964C6.49434 9.66327 6.54545 9.33758 6.54545 9C6.54545 8.5948 6.4718 8.20684 6.33719 7.84868L11.9248 4.96392C12.4981 5.91184 13.5387 6.54545 14.7273 6.54545ZM14.7273 5.72727C16.0829 5.72727 17.1818 4.62834 17.1818 3.27273C17.1818 1.91711 16.0829 0.818182 14.7273 0.818182C13.3717 0.818182 12.2727 1.91711 12.2727 3.27273C12.2727 4.62834 13.3717 5.72727 14.7273 5.72727ZM14.7273 18C16.0829 18 17.1818 16.9011 17.1818 15.5455C17.1818 14.1898 16.0829 13.0909 14.7273 13.0909C13.3717 13.0909 12.2727 14.1898 12.2727 15.5455C12.2727 16.9011 13.3717 18 14.7273 18ZM5.72727 9C5.72727 10.3556 4.62834 11.4545 3.27273 11.4545C1.91711 11.4545 0.818182 10.3556 0.818182 9C0.818182 7.64439 1.91711 6.54545 3.27273 6.54545C4.62834 6.54545 5.72727 7.64439 5.72727 9Z" fill="#333333"/>
</svg>
