<svg width="30" height="30" viewBox="0 0 30 30" fill="none" xmlns="http://www.w3.org/2000/svg">
<path d="M22.6557 9.53462C23.5534 8.9911 24.1478 8.24923 24.4389 7.30573C23.619 7.74308 22.7392 8.06089 21.8268 8.24923C21.0458 7.42079 20.0569 7 18.8715 7C17.7126 7 16.7338 7.40107 15.9349 8.18129C15.5492 8.55179 15.2441 8.99608 15.0386 9.48693C14.833 9.97779 14.7312 10.5049 14.7395 11.0359C14.7395 11.3745 14.7828 11.6769 14.8695 11.9334C11.4519 11.8183 8.62313 10.42 6.39437 7.72872C6.01661 8.3873 5.82773 9.05794 5.82773 9.75159C5.82773 11.1772 6.4377 12.307 7.65541 13.1366C6.961 13.0785 6.34881 12.9053 5.82773 12.6215C5.82773 13.6395 6.13105 14.4899 6.73879 15.2383C7.32915 15.9676 8.16113 16.4685 9.08866 16.653C8.74201 16.7407 8.37648 16.7823 8.00094 16.7823C7.6543 16.7823 7.40875 16.7539 7.26321 16.6914C7.51875 17.5209 8.00094 18.1938 8.69757 18.7088C9.38624 19.2245 10.224 19.5098 11.0886 19.523C9.60863 20.6681 7.9165 21.2346 6.00217 21.2346C5.5333 21.2346 5.2011 21.2281 5 21.193C6.88545 22.4006 8.98422 23 11.3063 23C13.6829 23 15.7827 22.4061 17.6104 21.2182C19.4381 20.0369 20.7869 18.5795 21.6535 16.8634C22.5105 15.203 22.9568 13.3659 22.9557 11.5027V10.9899C23.7545 10.409 24.446 9.69693 25 8.8848C24.2518 9.20463 23.4632 9.42321 22.6557 9.53462Z" fill="#333333"/>
</svg>
