<svg width="70" height="80" viewBox="0 0 70 80" fill="none" xmlns="http://www.w3.org/2000/svg">
<path fill-rule="evenodd" clip-rule="evenodd" d="M70 42.0396C70 42.0396 61.0004 38.8257 60.9461 47.835C60.8999 55.5281 60.5237 69.6746 39.7102 65.9408C39.7102 65.9408 32.4469 70.3327 30.4922 80C30.4922 80 18.0903 77.3423 21.5566 59.5746C21.5566 59.5746 26.8485 63.1812 35.666 59.0656C35.666 59.0656 25.3258 54.7719 23.0561 48.2094C23.0561 48.2094 4.79803 35.968 0 0C0 0 9.96403 19.0366 24.8173 20.9308C24.8173 20.9308 25.0254 9.41286 24.896 0.9344C24.896 0.9344 34.9444 15.9571 42.4674 19.4328C49.9904 22.9085 42.9444 29.9145 50.8172 40.618C50.8172 40.618 62.6204 28.2748 66.5798 37.9749L70 42.0396Z" fill="url(#paint0_linear_2830_141)" fill-opacity="0.6"/>
<defs>
<linearGradient id="paint0_linear_2830_141" x1="35" y1="3.91155e-08" x2="36.5" y2="87.8725" gradientUnits="userSpaceOnUse">
<stop stop-color="#1E9DFF"/>
<stop offset="0.776042" stop-color="#FCD400"/>
<stop offset="1" stop-color="#DCBA04"/>
</linearGradient>
</defs>
</svg>
