<svg width="40" height="40" viewBox="0 0 40 40" fill="none" xmlns="http://www.w3.org/2000/svg">
<path fill-rule="evenodd" clip-rule="evenodd" d="M12.199 21.3569C-0.888407 17.5205 7.87356 0 7.87356 0C7.87356 0 8.02243 1.42441 11.0288 7.42374C13.0061 11.3702 14.9741 14.2842 16.1198 15.3208C16.2052 15.1657 16.2903 15.0147 16.3756 14.8596C16.3756 14.8596 17.9624 11.6233 18.5902 10.8805C20.6963 8.38689 22.4048 10.9294 22.4048 10.9294L24.0049 11.6845C24.0049 11.6845 20.5578 14.4719 21.7763 17.4593C21.7763 17.4593 21.8097 17.6961 21.8279 18.1082C23.4499 18.3613 27.9276 17.6838 32.174 15.9575C38.3112 13.4639 40 13.0558 40 13.0558C40 13.0558 33.7277 35.0125 19.0568 26.1645C17.9149 27.6786 17.1712 27.6787 14.63 28.5602C14.63 28.5602 11.908 31.3598 13.6317 39.8935C13.6317 39.8935 4.73089 41.6485 0 30.9069C0 30.9069 5.20943 29.5478 9.55013 26.1074C9.55013 26.1074 10.0023 24.8952 12.199 21.3569Z" fill="url(#paint0_linear_2830_142)" fill-opacity="0.6"/>
<defs>
<linearGradient id="paint0_linear_2830_142" x1="20" y1="0" x2="20" y2="40" gradientUnits="userSpaceOnUse">
<stop stop-color="#1E9DFF"/>
<stop offset="0.776042" stop-color="#FCD400"/>
<stop offset="1" stop-color="#DCBA04"/>
</linearGradient>
</defs>
</svg>
