<svg width="55" height="66" viewBox="0 0 55 66" fill="none" xmlns="http://www.w3.org/2000/svg">
<path fill-rule="evenodd" clip-rule="evenodd" d="M0.505901 41.8564C0.505901 41.8564 7.63609 38.0964 8.92565 44.5264C10.0266 50.0171 12.2962 60.0663 29.297 54.0141C29.297 54.0141 32.3386 58.4857 35.3178 65.0745C35.3178 65.0745 48.3585 57.1862 45.0961 46.1752C45.0961 46.1752 39.7403 49.9509 31.7514 48.443C31.7514 48.443 58.161 42.1393 53.6128 0.431152C53.6128 0.431152 46.6599 17.3104 34.4209 21.0762C34.4209 21.0762 36.874 10.9394 32.7898 5.14633C32.7898 5.14633 26.4072 17.5165 20.5558 21.2236C14.7044 24.9307 21.6014 28.7923 16.4536 37.7219C16.4536 37.7219 6.2816 29.9 3.34369 38.5401L0.505901 41.8564Z" fill="url(#paint0_linear_2830_143)" fill-opacity="0.6"/>
<defs>
<linearGradient id="paint0_linear_2830_143" x1="24.1574" y1="6.12115" x2="40.5073" y2="76.8307" gradientUnits="userSpaceOnUse">
<stop stop-color="#1E9DFF"/>
<stop offset="0.776042" stop-color="#FCD400"/>
<stop offset="1" stop-color="#DCBA04"/>
</linearGradient>
</defs>
</svg>
