<svg width="55" height="46" viewBox="0 0 55 46" fill="none" xmlns="http://www.w3.org/2000/svg">
<path fill-rule="evenodd" clip-rule="evenodd" d="M34.7512 25.6473C45.5666 12.4696 24.1802 0.544144 24.1802 0.544144C24.1802 0.544144 25.0294 2.1201 26.1488 10.4332C26.8856 15.9014 26.1287 20.1591 25.675 22.0368C25.478 21.9365 25.2834 21.8406 25.086 21.7405C25.086 21.7405 21.945 19.6527 20.7736 19.3276C16.8425 18.2352 16.8683 22.0642 16.8683 22.0642L15.7473 23.9707C15.7473 23.9707 20.0992 23.6586 20.9443 27.602C20.9443 27.602 21.0765 27.87 21.348 28.3085C19.851 29.712 15.9204 32.929 10.3191 34.1361C2.22478 35.8822 0.193219 36.6499 0.193219 36.6499C0.193219 36.6499 22.1321 54.9102 31.0538 35.4415C33.2994 36.2012 34.0674 35.6776 37.3128 34.7986C37.3128 34.7986 42.0954 35.7734 46.3242 45.8008C46.3242 45.8008 56.7527 41.3459 54.075 26.9206C54.075 26.9206 47.7378 29.1852 40.8321 28.6884C40.8321 28.6884 39.5115 27.7549 34.7512 25.6473Z" fill="url(#paint0_linear_2830_144)" fill-opacity="0.6"/>
<defs>
<linearGradient id="paint0_linear_2830_144" x1="11.656" y1="9.08295" x2="54.0073" y2="42.3307" gradientUnits="userSpaceOnUse">
<stop stop-color="#1E9DFF"/>
<stop offset="0.776042" stop-color="#FCD400"/>
<stop offset="1" stop-color="#DCBA04"/>
</linearGradient>
</defs>
</svg>
