<svg width="30" height="30" viewBox="0 0 30 30" fill="none" xmlns="http://www.w3.org/2000/svg">
<path d="M14.4736 4.0032C12.7825 4.02452 9.14687 4.31468 7.11337 6.26261C5.60076 7.82755 5.07263 10.1413 5.01073 13.0023C4.95936 15.853 4.89746 21.2066 9.83963 22.6643V24.8845C9.83963 24.8845 9.80868 25.7728 10.3711 25.955C11.0638 26.184 11.4583 25.5005 12.1168 24.7662L13.3449 23.3161C16.7264 23.6097 19.3163 22.9331 19.6147 22.8327C20.3008 22.6037 24.1657 22.0881 24.7972 16.7338C25.4452 11.2043 24.4818 7.72029 22.7426 6.14434H22.7321C22.2072 5.63965 20.098 4.03483 15.3857 4.01695C15.3857 4.01695 15.036 3.9922 14.4736 4.00251V4.0032ZM14.5316 5.55783C15.0116 5.55439 15.3033 5.57571 15.3033 5.57571C19.292 5.58671 21.1958 6.84018 21.6449 7.26235C23.1094 8.57289 23.8641 11.7138 23.3116 16.3302C22.7867 20.8064 19.6522 21.0897 19.072 21.2829C18.8251 21.3654 16.544 21.9526 13.6702 21.7594C13.6702 21.7594 11.53 24.4561 10.861 25.1506C10.755 25.2723 10.6312 25.308 10.5521 25.2901C10.4389 25.2613 10.4046 25.1148 10.4112 24.914L10.4316 21.2293C6.24018 20.0191 6.48712 15.4529 6.5319 13.0676C6.58327 10.6824 7.01196 8.73103 8.28817 7.4095C10.0062 5.78748 13.0934 5.56883 14.5302 5.55783H14.5316ZM14.8477 7.94238C14.8132 7.94201 14.7789 7.94878 14.747 7.96229C14.715 7.97581 14.6859 7.99579 14.6613 8.02111C14.6368 8.04642 14.6173 8.07655 14.6039 8.10977C14.5906 8.14299 14.5837 8.17864 14.5836 8.21466C14.5836 8.36868 14.7034 8.49038 14.8477 8.49038C15.5006 8.47742 16.1495 8.59955 16.757 8.84973C17.3645 9.09991 17.9185 9.4732 18.3872 9.94806C19.344 10.9182 19.8102 12.2219 19.828 13.9264C19.828 14.077 19.9446 14.2021 20.0921 14.2021V14.1911C20.1616 14.1913 20.2284 14.1628 20.2778 14.1118C20.3273 14.0608 20.3555 13.9914 20.3561 13.9189C20.3881 13.1166 20.2635 12.3158 19.9899 11.5654C19.7163 10.8149 19.2994 10.1304 18.7645 9.55339C17.7221 8.48969 16.4011 7.94169 14.8477 7.94169V7.94238ZM11.3766 8.57289C11.1902 8.54445 11.0001 8.58352 10.8379 8.68359H10.8241C10.4476 8.91403 10.1084 9.20528 9.81922 9.54651C9.57886 9.83667 9.44847 10.1303 9.41423 10.4129C9.39382 10.5813 9.40765 10.7498 9.45572 10.9107L9.47284 10.9217C9.74349 11.7523 10.0971 12.5513 10.5291 13.3035C11.0856 14.3603 11.7704 15.3376 12.5666 16.2113L12.5903 16.247L12.6278 16.2759L12.6515 16.3048L12.6792 16.3295C13.5189 17.1633 14.4572 17.8817 15.4713 18.4672C16.6303 19.1259 17.3336 19.4374 17.7557 19.5667V19.5736C17.8795 19.6128 17.9921 19.6306 18.1053 19.6306C18.4651 19.6031 18.8056 19.4506 19.0727 19.1975C19.398 18.8954 19.6739 18.5398 19.8893 18.1448V18.1379C20.0914 17.7405 20.0229 17.3643 19.7312 17.1099C19.147 16.5767 18.5152 16.1031 17.8446 15.6956C17.3955 15.4412 16.9391 15.5952 16.7541 15.853L16.3596 16.3722C16.1574 16.63 15.79 16.5943 15.79 16.5943L15.7795 16.6011C13.0394 15.8702 12.3084 12.9734 12.3084 12.9734C12.3084 12.9734 12.2742 12.5794 12.5277 12.3787L13.0216 11.9634C13.258 11.7626 13.4226 11.2868 13.1691 10.8172C12.7815 10.1159 12.3289 9.45613 11.8178 8.84724C11.7061 8.70369 11.5493 8.60602 11.3753 8.57152L11.3766 8.57289ZM15.3033 9.38974C14.9537 9.38974 14.9537 9.94118 15.3066 9.94118C15.7414 9.94855 16.1706 10.0453 16.5696 10.2259C16.9685 10.4066 17.3295 10.6675 17.6319 10.9939C17.9077 11.3115 18.1196 11.6838 18.2551 12.0885C18.3906 12.4933 18.447 12.9223 18.4208 13.3502C18.422 13.4226 18.4503 13.4917 18.4996 13.5426C18.549 13.5935 18.6155 13.6222 18.6848 13.6225L18.6954 13.637C18.7652 13.6364 18.8321 13.6072 18.8815 13.5556C18.9309 13.504 18.9589 13.4342 18.9594 13.3612C18.9831 12.2687 18.6578 11.3521 18.0197 10.6178C17.3783 9.88343 16.4834 9.47156 15.3409 9.38974H15.3033ZM15.736 10.8722C15.3758 10.8612 15.362 11.4236 15.7189 11.4346C16.5868 11.4814 17.0082 11.9393 17.0636 12.8813C17.0648 12.9528 17.0927 13.021 17.1415 13.0712C17.1902 13.1215 17.2558 13.1498 17.3243 13.1501H17.3349C17.3701 13.1486 17.4046 13.1397 17.4365 13.124C17.4684 13.1083 17.497 13.0862 17.5206 13.0589C17.5442 13.0315 17.5624 12.9996 17.574 12.9648C17.5856 12.9301 17.5905 12.8933 17.5884 12.8565C17.5265 11.6285 16.8851 10.9368 15.7465 10.8729H15.736V10.8722Z" fill="#333333"/>
</svg>
