<svg width="50" height="17" viewBox="0 0 50 17" fill="none" xmlns="http://www.w3.org/2000/svg">
<g clip-path="url(#clip0_1753_579)">
<path d="M21.6755 15.9507H17.5956L20.1454 0.280013H24.2257L21.6755 15.9507ZM14.1633 0.280013L10.2737 11.0584L9.8135 8.73742L9.81392 8.73825L8.44108 1.69098C8.44108 1.69098 8.27507 0.280013 6.5057 0.280013H0.0754528L0 0.545355C0 0.545355 1.96638 0.954475 4.26769 2.33652L7.81229 15.9511H12.0632L18.5543 0.280013H14.1633ZM46.2537 15.9507H50L46.7337 0.279594H43.4541C41.9396 0.279594 41.5707 1.44743 41.5707 1.44743L35.4858 15.9507H39.7388L40.5893 13.623H45.7759L46.2537 15.9507ZM41.7643 10.4074L43.908 4.54309L45.114 10.4074H41.7643ZM35.8048 4.04846L36.3871 0.683265C36.3871 0.683265 34.5905 0 32.7176 0C30.6929 0 25.8849 0.884892 25.8849 5.18779C25.8849 9.23625 31.5279 9.28658 31.5279 11.4131C31.5279 13.5396 26.4663 13.1585 24.7958 11.8176L24.1893 15.3362C24.1893 15.3362 26.0111 16.2211 28.7944 16.2211C31.5787 16.2211 35.7788 14.7795 35.7788 10.856C35.7788 6.78152 30.0851 6.40217 30.0851 4.6307C30.0855 2.85882 34.0589 3.08643 35.8048 4.04846Z" fill="#2566AF"/>
<path d="M9.81392 8.73734L8.44108 1.69002C8.44108 1.69002 8.27507 0.279053 6.5057 0.279053H0.0754528L0 0.544394C0 0.544394 3.09063 1.1849 6.05508 3.58472C8.88958 5.87849 9.81392 8.73734 9.81392 8.73734Z" fill="#E6A540"/>
</g>
<defs>
<clipPath id="clip0_1753_579">
<rect width="50" height="16.6667" fill="white"/>
</clipPath>
</defs>
</svg>
