<svg width="30" height="30" viewBox="0 0 30 30" fill="none" xmlns="http://www.w3.org/2000/svg">
<path fill-rule="evenodd" clip-rule="evenodd" d="M19.5823 16.985C19.3328 16.8608 18.1095 16.2625 17.8817 16.1792C17.6539 16.0967 17.4881 16.0558 17.3215 16.3042C17.1557 16.5508 16.6793 17.1092 16.5344 17.2742C16.3887 17.44 16.2438 17.46 15.9952 17.3367C15.7465 17.2117 14.9443 16.9508 13.9939 16.1075C13.2545 15.4509 12.7546 14.64 12.6098 14.3917C12.4649 14.1442 12.5939 14.01 12.7186 13.8867C12.8308 13.7759 12.9673 13.5975 13.0921 13.4534C13.2169 13.3084 13.2579 13.205 13.3408 13.0392C13.4245 12.8742 13.3826 12.73 13.3198 12.6059C13.2579 12.4817 12.7605 11.2625 12.5528 10.7667C12.351 10.2842 12.1459 10.35 11.9935 10.3417C11.8478 10.335 11.682 10.3334 11.5162 10.3334C11.3504 10.3334 11.0808 10.395 10.853 10.6434C10.6244 10.8909 9.98219 11.49 9.98219 12.7092C9.98219 13.9275 10.8731 15.105 10.9979 15.2709C11.1227 15.4359 12.7521 17.9375 15.2482 19.01C15.8428 19.265 16.3058 19.4175 16.6667 19.5308C17.2629 19.72 17.8055 19.6933 18.2342 19.6292C18.7115 19.5583 19.7063 19.03 19.9139 18.4517C20.1208 17.8733 20.1207 17.3775 20.0588 17.2742C19.9968 17.1708 19.831 17.1092 19.5815 16.985H19.5823ZM15.0423 23.1542H15.0389C13.5563 23.1544 12.101 22.7578 10.8254 22.0058L10.524 21.8275L7.39062 22.6458L8.22712 19.6058L8.03035 19.2942C7.20149 17.9811 6.76286 16.4615 6.76512 14.9109C6.76679 10.3692 10.4796 6.6742 15.0456 6.6742C17.2562 6.6742 19.3345 7.53253 20.897 9.08919C21.6676 9.85301 22.2785 10.7613 22.6941 11.7616C23.1098 12.7619 23.322 13.8343 23.3186 14.9167C23.3169 19.4583 19.6041 23.1542 15.0423 23.1542ZM22.086 7.9067C21.1634 6.98247 20.0657 6.24965 18.8564 5.7507C17.6472 5.25175 16.3505 4.9966 15.0414 5.00003C9.55347 5.00003 5.08541 9.44586 5.08373 14.91C5.08119 16.649 5.53956 18.3578 6.4126 19.8642L5 25L10.2786 23.6217C11.7388 24.4134 13.3752 24.8283 15.0381 24.8283H15.0423C20.5302 24.8283 24.9983 20.3825 25 14.9175C25.004 13.6152 24.7485 12.3251 24.2484 11.1217C23.7482 9.91833 23.0132 8.82559 22.086 7.9067Z" fill="#333333"/>
</svg>
